<svg xmlns="http://www.w3.org/2000/svg" width="16.284" height="19.622" viewBox="0 0 16.284 19.622">
  <path id="bitcoin" d="M11.882,5.237a2.425,2.425,0,0,1-1.34,2.639,3.073,3.073,0,0,1,1.79,1.053,3.031,3.031,0,0,1,.46,2.189A3.859,3.859,0,0,1,12.46,12.4a2.827,2.827,0,0,1-.66.91,3.355,3.355,0,0,1-.992.6,6.03,6.03,0,0,1-1.243.353,12.459,12.459,0,0,1-1.488.154v2.608H6.5V14.452q-.818,0-1.248-.01v2.577H3.679V14.411q-.184,0-.552-.005T2.565,14.4H.519l.317-1.872H1.971a.546.546,0,0,0,.593-.521V7.9h.164a1.023,1.023,0,0,0-.164-.01V4.95a.812.812,0,0,0-.91-.7H.519V2.577l2.169.01q.655,0,.992-.01V0H5.255V2.526q.839-.02,1.248-.02V0H8.078V2.577a9.087,9.087,0,0,1,1.432.23,4.662,4.662,0,0,1,1.156.46,2.342,2.342,0,0,1,.844.8A2.6,2.6,0,0,1,11.882,5.237Zm-2.2,5.574a1.364,1.364,0,0,0-.154-.655,1.537,1.537,0,0,0-.378-.47,1.941,1.941,0,0,0-.588-.312,4.93,4.93,0,0,0-.67-.189,6.139,6.139,0,0,0-.757-.092q-.451-.031-.706-.031t-.66.01l-.486.01V12.54l.378.005q.3.005.491.005t.542-.015q.348-.015.6-.041t.583-.087a3.85,3.85,0,0,0,.568-.143,3.554,3.554,0,0,0,.486-.215,1.406,1.406,0,0,0,.4-.307,1.452,1.452,0,0,0,.251-.409,1.359,1.359,0,0,0,.1-.521ZM8.957,5.943a1.345,1.345,0,0,0-.128-.6,1.42,1.42,0,0,0-.312-.43,1.535,1.535,0,0,0-.491-.286,3.483,3.483,0,0,0-.563-.169,5.677,5.677,0,0,0-.629-.082,5.915,5.915,0,0,0-.593-.026l-.552.01-.4.005v3.14l.353.005q.3.005.476,0t.512-.02a4.276,4.276,0,0,0,.563-.056q.225-.041.527-.113a1.727,1.727,0,0,0,.5-.189,2.817,2.817,0,0,0,.378-.276.984.984,0,0,0,.276-.394,1.419,1.419,0,0,0,.092-.521Z" transform="matrix(0.966, 0.259, -0.259, 0.966, 3.904, -0.134)" fill="#fff"/>
</svg>
