<svg xmlns="http://www.w3.org/2000/svg" width="14.892" height="16.146" viewBox="0 0 14.892 16.146">
  <path id="ripple" d="M14.6,9.856a3.941,3.941,0,0,0-1.851-.448,1.311,1.311,0,0,1-1.328-1.336,1.357,1.357,0,0,1,1.336-1.336A3.941,3.941,0,0,0,14.6,6.288,3.373,3.373,0,1,0,9.534,3.375a3.9,3.9,0,0,0,.531,1.814,1.321,1.321,0,0,1-.478,1.837,1.359,1.359,0,0,1-1.829-.5A3.81,3.81,0,0,0,6.453,5.159a3.368,3.368,0,1,0,0,5.834A3.818,3.818,0,0,0,7.759,9.627a1.313,1.313,0,0,1,1.828-.5,1.35,1.35,0,0,1,.479,1.837,3.873,3.873,0,0,0-.531,1.813A3.369,3.369,0,1,0,14.6,9.855Z" transform="translate(-1.398 0)" fill="#fff"/>
</svg>
