<?xml version="1.0" encoding="utf-8"?>
<!-- Generator: Adobe Illustrator 23.0.6, SVG Export Plug-In . SVG Version: 6.00 Build 0)  -->
<svg version="1.1" id="Layer_1" xmlns="http://www.w3.org/2000/svg" xmlns:xlink="http://www.w3.org/1999/xlink" x="0px" y="0px"
	 viewBox="0 0 560 288" style="enable-background:new 0 0 560 288;" xml:space="preserve">
<style type="text/css">
	.st0{clip-path:url(#SVGID_2_);}
	.st1{fill:#241E20;}
	.st2{fill:#231E20;}
	.st3{fill:#241F21;}
	.st4{fill:#241F20;}
	.st5{fill:#231F20;}
	.st6{fill:#25201F;}
	.st7{fill:#261F20;}
	.st8{fill:#282020;}
	.st9{fill:#261F1F;}
	.st10{fill:#261E1D;}
	.st11{fill:#27201F;}
	.st12{fill:#28201F;}
	.st13{fill:#262020;}
	.st14{fill:#251F20;}
	.st15{fill:#251F1F;}
	.st16{fill:#26201E;}
	.st17{fill:#261F1C;}
	.st18{fill:#29211E;}
	.st19{fill:#26201C;}
	.st20{fill:#AC9D8C;}
	.st21{fill:#938377;}
	.st22{fill:#AE9E93;}
	.st23{fill:#917B65;}
	.st24{fill:#938372;}
	.st25{fill:#8A786C;}
	.st26{fill:#8F8177;}
	.st27{fill:#887D71;}
	.st28{fill:#9B867A;}
	.st29{fill:#887B6F;}
	.st30{fill:#89786D;}
	.st31{fill:#23201F;}
	.st32{fill:#877B65;}
	.st33{fill:#B29F88;}
	.st34{fill:#B49D8D;}
	.st35{fill:#070303;}
	.st36{fill:#AD998A;}
	.st37{fill:#A7968C;}
	.st38{fill:#A28F7F;}
	.st39{fill:#45403F;}
	.st40{fill:#B7A494;}
	.st41{fill:#A39387;}
	.st42{fill:#363129;}
	.st43{fill:#B6B3AA;}
	.st44{fill:#827E79;}
	.st45{fill:#877A6E;}
	.st46{fill:#080403;}
	.st47{fill:#998C7E;}
	.st48{fill:#8F7B71;}
	.st49{fill:#B7A492;}
	.st50{fill:#888075;}
	.st51{fill:#F1EEE7;}
	.st52{fill:#94806E;}
	.st53{fill:#8F796B;}
	.st54{fill:#423C3C;}
	.st55{fill:#A68F7B;}
	.st56{fill:#8C7F71;}
	.st57{fill:#AA9D95;}
	.st58{fill:#7A716C;}
	.st59{fill:#B09A8D;}
	.st60{fill:#AD9986;}
	.st61{fill:#83786F;}
	.st62{fill:#AB9C8E;}
	.st63{fill:#9B8E82;}
	.st64{fill:#B9A79A;}
	.st65{fill:#B8A899;}
	.st66{fill:#A59384;}
	.st67{fill:#907D6E;}
	.st68{fill:#2F2726;}
	.st69{fill:#8E8678;}
	.st70{fill:#968D80;}
	.st71{fill:#9A9084;}
	.st72{fill:#514D44;}
	.st73{fill:#7A7369;}
	.st74{fill:#C6BAA6;}
	.st75{fill:#81796F;}
	.st76{fill:#4B463F;}
	.st77{fill:#403B35;}
	.st78{fill:#665F57;}
	.st79{fill:#383430;}
	.st80{fill:#2D2C27;}
	.st81{fill:#5C5B51;}
	.st82{fill:#6B655E;}
	.st83{fill:#746C63;}
	.st84{fill:#6F675E;}
	.st85{fill:#857C72;}
	.st86{fill:#241E1E;}
	.st87{fill:#251E1F;}
	.st88{fill:#F5F3EF;}
	.st89{fill:#252020;}
	.st90{fill:#92816F;}
	.st91{fill:#261E1E;}
	.st92{fill:#271D1C;}
	.st93{fill:#261D1D;}
	.st94{fill:#2A2121;}
	.st95{fill:#261E1F;}
	.st96{fill:#271F20;}
	.st97{fill:#251F1D;}
	.st98{fill:#272121;}
	.st99{fill:#241E1F;}
	.st100{fill:#262021;}
	.st101{fill:#B39F90;}
	.st102{fill:#605955;}
	.st103{fill:#8B7A6E;}
	.st104{fill:#4C4A4E;}
	.st105{fill:#B09F8B;}
	.st106{fill:#968170;}
	.st107{fill:#A18F7E;}
	.st108{fill:#AB9A8E;}
	.st109{fill:#93806D;}
	.st110{fill:#B59F8E;}
	.st111{fill:#B69B87;}
	.st112{fill:#AE9A8A;}
	.st113{fill:#46392E;}
	.st114{fill:#938478;}
	.st115{fill:#3F3C3E;}
	.st116{fill:#A3A5A2;}
	.st117{fill:#847369;}
	.st118{fill:#A59382;}
	.st119{fill:#060302;}
	.st120{fill:#C8BDA7;}
	.st121{fill:#927C6B;}
	.st122{fill:#B09A84;}
	.st123{fill:#F4EFE4;}
	.st124{fill:#9F8F7F;}
	.st125{fill:#B0967E;}
	.st126{fill:#F2EFE6;}
	.st127{fill:#AC9B8B;}
	.st128{fill:#8E7C6B;}
	.st129{fill:#8F7E69;}
	.st130{fill:#251E1E;}
	.st131{fill:#B19A86;}
	.st132{fill:#928170;}
	.st133{fill:#A99484;}
	.st134{fill:#998B7E;}
	.st135{fill:#A18F7C;}
	.st136{fill:#9B846D;}
	.st137{fill:#837265;}
	.st138{fill:#4C4039;}
	.st139{fill:#93806A;}
	.st140{fill:#9C8B79;}
	.st141{fill:#A99377;}
	.st142{fill:#B3A092;}
	.st143{fill:#B39A7F;}
	.st144{fill:#998B7C;}
	.st145{fill:#0D0705;}
	.st146{fill:#9A8F82;}
	.st147{fill:#F3F0ED;}
	.st148{fill:#C9BFB4;}
	.st149{fill:#B6A592;}
	.st150{fill:#988273;}
	.st151{fill:#9C8B7E;}
	.st152{fill:#B3A295;}
	.st153{fill:#B7A597;}
	.st154{fill:#B19B8C;}
	.st155{fill:#DFD9CC;}
	.st156{fill:#A29585;}
	.st157{fill:#4C4741;}
	.st158{fill:#91877B;}
	.st159{fill:#8F867A;}
	.st160{fill:#29221F;}
	.st161{fill:#786E5F;}
	.st162{fill:#9C8F7E;}
	.st163{fill:#4A453E;}
	.st164{fill:#8A8073;}
	.st165{fill:#776C62;}
	.st166{fill:#696358;}
	.st167{fill:#403D3A;}
	.st168{fill:#090402;}
	.st169{fill:#F7F3EB;}
	.st170{fill:#99816F;}
	.st171{fill:#494C48;}
	.st172{fill:#3E3E43;}
	.st173{fill:#927F6D;}
	.st174{fill:#D4A56B;}
	.st175{fill:#D3A56C;}
	.st176{fill:#2F1F12;}
	.st177{fill:#D2A56D;}
	.st178{fill:#2D1F13;}
	.st179{fill:#D2A56B;}
	.st180{fill:#D2A46C;}
	.st181{fill:#D1A56C;}
	.st182{fill:#D1A56D;}
	.st183{fill:#D1A56E;}
	.st184{fill:#D0A46D;}
	.st185{fill:#CFA46C;}
	.st186{fill:#D0A56D;}
	.st187{fill:#CFA36D;}
	.st188{fill:#2F1F13;}
	.st189{fill:#CEA46E;}
	.st190{fill:#CCA26B;}
	.st191{fill:#040303;}
	.st192{fill:#040304;}
	.st193{fill:#050303;}
	.st194{fill:#67461F;}
	.st195{fill:#C7A275;}
	.st196{fill:#A99077;}
	.st197{fill:#B69A82;}
	.st198{fill:#464343;}
	.st199{fill:#7B582D;}
	.st200{fill:#4C321A;}
	.st201{fill:#483115;}
	.st202{fill:#252425;}
</style>
<g>
	<defs>
		<rect id="SVGID_1_" x="100" y="-51" width="360" height="390"/>
	</defs>
	<clipPath id="SVGID_2_">
		<use xlink:href="#SVGID_1_"  style="overflow:visible;"/>
	</clipPath>
	<g class="st0">
		<g>
			<path class="st1" d="M312.8,27.13c4.63,2.57,7.89,6.67,11.54,10.34c-0.26,0.37-0.61,0.64-1.02,0.81
				c-3.82,0.62-7.67,0.19-11.5,0.28c-2.33,0.03-3.91-1.36-5.45-2.87c-7.11-6.97-14.15-14.01-21.18-21.06
				c-3.35-3.35-3.19-3.25-6.63-0.19c-12.49,11.09-23.71,23.48-35.77,35.01c-1.18,1.13-2.2,3.88-4.73,1.65
				c-0.91-4.13,0.01-8.33-0.59-12.47c-0.11-0.38-0.21-0.76-0.29-1.15c7.93-7.81,16.02-15.46,23.74-23.48
				c5.84-6.06,11.84-11.94,17.88-17.79c1.32-1.28,2.48-2.03,4.09-0.4c9.17,9.27,18.37,18.5,27.55,27.76
				c0.23,0.23,0.24,0.69,0.35,1.04c-0.02,0.36-0.05,0.73-0.11,1.09c-0.14,0.8-1.12,1.7-0.33,2.34
				C311.37,28.87,311.95,27.39,312.8,27.13z"/>
			<path class="st1" d="M164.5,177.75c-8.67-7.29-16.57-15.36-24.28-23.64c-2.06-2.21-4.41-4.16-6.63-6.23
				c0.13-0.1,0.25-0.21,0.38-0.31c0.26,0,0.47,0.09,0.64,0.25c0.03,0.03,0.08,0.03,0.12,0.04c-1.01-2.13-0.02-4.52-0.84-6.68
				c4.49-5.76,9.96-10.54,15.37-15.38c0.18,0.02,0.35,0.04,0.53,0.06c3.16,2.11,5.96,4.48,6.15,8.7c0.03,0.36,0,0.71-0.07,1.06
				c-1.05,2.48-3.33,3.93-5.03,5.87c-1.59,1.81-1.74,3.4,0.2,5.09c1.47,1.29,3.01,2.62,3.3,4.76c-0.53,2.13,0.92,2,2.28,1.98
				c3.68,1.19,5.98,4.09,8.35,6.86c0.45,0.53,0.81,1.26,0.15,1.96c-3.33,1.31-6.77,0.33-10.14,0.67c3.38-0.62,6.86,0.69,10.2-0.72
				c2.24-0.6,3.52,0.8,4.75,2.29c0.07,0.32,0.03,0.64-0.07,0.95c-0.08,1.92,1.78,2.43,2.68,3.65c1.62,1.77,3.45,3.35,4.93,5.25
				c2.62,3.78,6.89,6.15,8.94,10.42c0.18,4.71,0.52,9.42-0.19,14.12c-0.2,0.41-0.51,0.71-0.93,0.91
				c-6.69-6.75-13.39-13.5-20.08-20.25c-0.41-2.22,1.2-4.42,0.06-7.4C164.44,174.35,166.61,176.38,164.5,177.75z"/>
			<path class="st2" d="M310.18,265.66c-8.98,9-17.95,18-26.94,26.99c-1.2,1.2-2.19,2.84-4.2,0.78
				c-8.64-8.84-17.37-17.59-26.06-26.37c4.84-2.11,9.77-1.31,14.69-0.41c0.58,0.11,1.11,0.5,1.74,0.53c3.3,0.08,4.78,2.84,6.79,4.75
				c6.29,5.98,4.09,5.38,10.26,0.14c4.15-3.52,7.86-7.57,11.58-11.56c1.1-1.18,2.13-2.44,3.83-2.8c0.36-0.01,0.68,0.09,0.98,0.29
				c2.09,2.45,4.53,4.54,6.88,6.74C309.93,265.03,310.09,265.33,310.18,265.66z"/>
			<path class="st1" d="M235.64,249.83c-8.85-8.64-17.72-17.27-26.16-26.32c-0.18-2.2-2.84-2.79-3.18-4.9
				c-0.25-4.34-0.19-8.68-0.05-13.02c0.05-0.39,0.17-0.76,0.36-1.11c1.44-1.56,2.23,0,2.99,0.76c12.12,12.21,24.36,24.3,36.45,36.53
				c0.98,0.99,2.43,1.93,1.63,3.76c-2.4,1.39-5.04,0.58-7.57,0.76c-1.93,0.13-3.43,0.54-3.31,2.9
				C236.59,249.71,236.31,250.13,235.64,249.83z"/>
			<path class="st1" d="M363.07,212.83c-4.17,4.06-8.34,8.12-12.52,12.19c-4.46,0.47-8.93,0.51-13.39,0.07
				c-2.67-1.67-1-3.15,0.39-4.33c4.43-3.78,8.35-8.08,12.48-12.16c1.83-1.81,3.69-3.67,4.51-6.23c0.65-1.73,2.43-0.31,3.38-1.22
				c4.55-3.82,8.65-8.1,12.56-12.55c0.6-0.44,1.21-0.78,1.97-0.37c1.36,1.84-0.13,3.74,0.4,5.61c0.06-2.09,0.41-4.18-0.22-6.28
				c2.45-4.33,5.13-8.43,10.42-9.73c0.28,0.33,0.47,0.69,0.6,1.1c-0.12,4.38,1.25,8.86-0.9,13.09c-0.43,2.1-2.05,3.26-3.47,4.65
				c-5.45,5.34-10.8,10.76-16.2,16.15c-1.47-2.81,0.03-5.83-0.94-8.68C363.29,206.98,361.76,210,363.07,212.83z"/>
			<path class="st3" d="M323.56,37.48c0.26,0,0.52-0.01,0.78-0.01c12.43,12.3,24.19,25.25,37.17,36.99
				c1.07,0.97,2.44,1.84,2.48,3.58c-0.52,2.09-2.18,2.4-3.94,2.49c-2.18,0.11-4.37-0.01-6.55,0.12c-5.11-1.14-7.48-5.55-10.57-9.05
				c-0.87-0.99-1.55-2.18-2.55-3.1c-3.1-5.01-7.4-8.98-11.91-12.57c-2.79-2.23-4.06-6.06-7.82-7.14c-3.83-1.49-6.06-4.86-8.83-7.57
				c-0.84-0.82-1.2-1.9,0.14-2.76c2.57-0.41,5.16-0.09,7.74-0.2C321.02,38.19,322.43,38.54,323.56,37.48z"/>
			<path class="st1" d="M407.44,122.45c2.55-0.95,3.5,1.46,4.56,2.66c5.28,5.98,10.97,11.55,16.73,17.02
				c2.12,2.01,2.12,3.01,0.14,4.95c-8.63,8.46-17.13,17.06-25.68,25.61c-0.34-0.1-0.65-0.27-0.93-0.5c-2-2.87-5.56-4.47-6.64-8.09
				c-0.03-1.24,0.63-2.18,1.47-2.92c4.71-4.11,8.95-8.7,13.45-13.01c0.81-0.77,1.66-1.56,2.91-1.38c0.2,0.1,0.37,0.27,0.47,0.5
				c0.49-0.51-0.23-0.79-0.23-1.22c-0.21-1.6-0.22-3.19,0-4.78c0.46-2.63,0.15-5.27,0.23-7.91c0.15-3.51-3.25-4.59-4.77-6.95
				C408.35,125.19,406.48,124.44,407.44,122.45z"/>
			<path class="st4" d="M191.49,84.11c0.96-2.71,3.5-4.12,5.32-6.03c6.46-6.78,13.29-13.22,19.98-19.78
				c0.15,0.13,0.29,0.26,0.44,0.39c0.16,4.83,0.06,9.66,0.27,14.48c0.02,1.06-0.45,1.94-1.11,2.69
				c-5.22,5.94-10.32,12.02-17.26,16.14C195.6,90.33,192.6,88.13,191.49,84.11z"/>
			<path class="st5" d="M339.44,236.43c-8.04,7.95-16.08,15.89-24.12,23.84c-3.4-1.42-5.35-4.44-7.72-7
				c-0.15-0.34-0.22-0.69-0.22-1.06c0.52-2.7,2.98-3.9,4.6-5.69c3.16-3.47,6.17-7.13,10.02-9.93c1.11-0.8,2.14-1.74,3.67-1.56
				c4.29,0.48,8.62-0.36,12.89,0.51C338.95,235.74,339.24,236.04,339.44,236.43z"/>
			<path class="st4" d="M164.32,110.83c2.38-4.5,7.01-6.85,10.23-10.6c1.71-1.99,3.65-3.97,5.62-5.82c0.16,0.07,0.32,0.15,0.48,0.22
				c2.41,2.77,5.59,4.84,7.41,8.16c0.03,1.54-1.05,2.45-1.98,3.42c-5.09,5.23-10.41,10.23-15.38,15.57
				c-0.77,0.83-1.63,1.52-2.83,1.6c-0.36-0.03-0.7-0.14-1.02-0.31c-1.76-1.24-1.81-3.11-1.89-5.01c-0.09-2.1,0.3-4.23-0.31-6.31
				C164.51,111.46,164.4,111.15,164.32,110.83z"/>
			<path class="st6" d="M369.25,82.5c5.68,5.71,11.36,11.43,17.05,17.14c0.95,0.95,2.23,1.62,2.57,3.07
				c-2.39,1.55-4.99,0.86-7.52,0.61c-1.65-0.16-3.21-0.37-4.46,1.03c-2.47,0.43-3.53-1.7-4.82-2.98c-3.49-3.46-7.6-6.43-9.71-11.11
				c1.62-2.72,4.58-4.27,6.14-7.04C368.73,82.96,368.98,82.72,369.25,82.5z"/>
			<path class="st7" d="M195.92,210.02c-3.54-3.45-7.08-6.9-10.63-10.35c0,0,0.25-0.23,0.25-0.23c0.76-4.8,0.13-9.63,0.34-14.43
				c-0.02-0.4,0.03-0.8,0.16-1.19c0.44-0.31,0.96-0.41,1.38-0.11c3.73,2.69,6.98,5.86,9.58,9.66c0.35,0.51,0.29,1.19,0.17,1.81
				c-0.17,3.58-0.01,7.17-0.1,10.74C197.04,207.38,197.33,208.96,195.92,210.02z"/>
			<path class="st8" d="M207.43,219.75c0.85,1.16,3.29,1.45,2.06,3.76c-4.58-3.91-8.68-8.29-12.74-12.72
				c0.07-4.94-0.11-9.88,0.1-14.82c0.47-1.73,1.67-1.37,2.52-0.6c2.9,2.61,6.23,4.85,7.9,8.6c0,0.26,0,0.53-0.01,0.79
				C206.74,209.76,206.38,214.76,207.43,219.75z"/>
			<path class="st9" d="M216.79,58.29c3.56-3.7,7.12-7.41,10.68-11.11c0.35,0.25,0.62,0.58,0.79,0.98c0.7,4.33,0.06,8.71,0.39,13.06
				c0.1,0.39,0.13,0.79,0.09,1.19c-1.89,4.31-5.42,7.16-9.02,9.92c-0.87,0.67-1.99,1.26-2.6-0.43c-0.16-4.48-0.1-8.95-0.15-13.43
				L216.79,58.29z"/>
			<path class="st10" d="M235.64,249.83c0.29-0.26,0.58-0.53,0.87-0.79c-0.12-2.57,1.59-2.89,3.58-3.05
				c2.68-0.21,5.43,0.61,8.03-0.56c2.9,0.19,10.21,7.72,10.12,10.45c-0.01,0.19-0.31,0.35-0.52,0.49c-4.66,1.06-9.4,0.07-14.08,0.59
				c-0.39,0.12-0.78,0.23-1.17,0.35C240.2,254.82,237.92,252.32,235.64,249.83z"/>
			<path class="st11" d="M227.48,47.94c0-0.25,0-0.5-0.01-0.75c3.24-3.24,6.47-6.47,9.71-9.71c0.26,0,0.52,0.01,0.78,0.01
				c0.39,4.82-0.58,9.69,0.5,14.49c0.44,0.33,0.77,0.89,0.4,1.26c-3.24,3.34-5.82,7.43-10.45,9.19l-0.18-0.2
				c-0.76-3.41-0.13-6.88-0.36-10.31C227.78,50.59,228.26,49.2,227.48,47.94z"/>
			<path class="st12" d="M242.48,257.32c0-0.25,0-0.49,0-0.74c5.36-0.52,10.79,0.66,16.12-0.61c3,0.1,9.59,6.81,9.42,9.63
				c-0.01,0.19-0.32,0.34-0.55,0.46c-3.68,0.42-7.37,0.07-11.05,0.2c-1.33,0.05-2.72-0.31-3.93,0.56c-1.96-1.99-4.03-3.87-5.82-6
				C245.44,259.38,244.07,258.25,242.48,257.32z"/>
			<path class="st13" d="M394.04,181.66c-3.34,3.62-6.54,7.38-10.55,10.32c-0.8-3.38-0.14-6.82-0.37-10.22
				c-0.09-1.33,0.33-2.7-0.35-3.97l-0.19-0.18c1.02-3.66,4.76-7.06,8.23-7.48C395.55,172.94,394.25,177.45,394.04,181.66z"/>
			<path class="st14" d="M349.77,225.79c-2.97,4-6.98,7-10.33,10.64c0,0-0.23-0.22-0.23-0.22c-2.84-1.41-5.86-0.43-8.79-0.69
				c-1.36-0.12-2.74,0.1-4.09-0.19c-0.86-0.41-1.04-1.18-0.56-1.85c2.42-3.33,5.08-6.44,8.61-8.66c0.53-0.33,1.21-0.24,1.81,0.04
				c3.36,0.32,6.72,0.04,10.07,0.16C347.47,225.06,348.79,224.69,349.77,225.79z"/>
			<path class="st1" d="M397.06,110.18c3.13,2.35,4.92,6.06,8.3,8.17c1.25,0.78,1.45,1.88,0.64,3.14
				c-3.76,1.04-7.62-0.16-11.39,0.51c-1.19,0.15-2.29-0.2-3.09-1.03c-2.96-3.07-6.84-5.36-8.33-9.7c0.18-0.37,0.47-0.59,0.87-0.67
				c4.15-0.05,8.32,0.46,12.45-0.3C396.69,110.27,396.88,110.22,397.06,110.18z"/>
			<path class="st15" d="M376.73,104.3c-0.46-1.71-0.01-2.52,1.96-2.32c3.38,0.33,6.79,0.5,10.18,0.73
				c2.73,2.49,5.46,4.98,8.19,7.48c-0.1,0.11-0.21,0.21-0.31,0.31c-4.33,1.06-8.72,0.32-13.08,0.4l-0.31,0.21
				C380.1,109.87,377.19,108.28,376.73,104.3z"/>
			<path class="st13" d="M155.49,120.12c2.44-3.58,5.46-6.6,8.83-9.3c0,0,0.25,0.22,0.25,0.22c2.1,2.37,0.73,5.22,1,7.83
				c0.17,1.65-0.01,3.28,1.87,4.07l0.23,0.2c-0.61,2.58-2.02,4.49-4.6,5.4C159.97,126.26,156.59,124.21,155.49,120.12z"/>
			<path class="st15" d="M403.18,172.69c-2.79,2.69-5.59,5.38-8.38,8.08c-0.97-0.7-0.91-1.78-0.76-2.71
				c0.56-3.38-0.72-5.99-3.13-8.19c-0.28-2.72,1.07-4.34,3.53-5.19c3.52,1.89,5.64,5.31,8.58,7.84L403.18,172.69z"/>
			<path class="st16" d="M149.26,125.81c1.2-2.59,3.95-3.6,5.69-5.64c1.71,3.67,5.7,5.42,7.57,8.96c-1.26,3.18-3.51,5.24-6.87,6.05
				l-0.15-0.17c-0.03-4.33-2.97-6.72-6.03-9.03L149.26,125.81z"/>
			<path class="st17" d="M314.5,261c-1.44,1.55-2.88,3.11-4.32,4.66c0,0-0.21-0.18-0.21-0.18c-2.73-2.22-5.28-4.62-7.43-7.43
				l-0.23-0.2c0.34-3.2,2.31-4.74,5.31-5.23l0.19,0.22C309.3,256.17,313.05,257.64,314.5,261z"/>
			<path class="st18" d="M186.24,89.22c0.76-2.15,2.9-2.99,4.3-4.53c2.77,2.74,5.86,5.17,8.04,8.47c-0.63,2.14-1.01,4.47-3.89,4.79
				C191.07,95.83,187.92,93.24,186.24,89.22z"/>
			<path class="st19" d="M180.17,94.41c1.84-1.67,3.68-3.34,5.52-5.01c2.03,1.83,3.47,4.24,5.66,5.92c0.96,0.73,1.35,1.76,1.24,2.96
				c-0.82,1.82-1.62,3.65-3.93,4.02c-3.28-1.98-5.45-5.16-8.26-7.65L180.17,94.41z"/>
			<path class="st20" d="M394.05,121.49c3.98-1.45,7.96-0.88,11.95,0c0.48,0.32,0.96,0.64,1.44,0.96c0.83,3.19,3.84,4.57,5.73,6.88
				c0.85,1.04,2.14,1.77,1.69,3.41c-0.32,0.2-0.67,0.25-1.04,0.14c-2.49-1.46-4.49-3.56-6.17-5.79c-2.91-3.86-6.7-4.68-11.11-4.26
				c-0.62,0.06-1.23,0.1-1.83-0.08C394.2,122.5,393.77,122.18,394.05,121.49z"/>
			<path class="st21" d="M252.48,266.82c0.13-2.19,1.83-1.23,2.83-1.27c4.24-0.16,8.48-0.16,12.72-0.22
				c1.19,0.42,2.32,0.9,2.44,2.41c-0.42,0.78-1.29,1.14-1.89,0.78c-4.99-3.02-10.42-0.95-15.61-1.45
				C252.83,266.94,252.67,266.86,252.48,266.82z"/>
			<path class="st22" d="M197.26,195.12c-0.35,5.22,0.6,10.47-0.51,15.67c-0.27-0.25-0.55-0.51-0.82-0.76
				c0.03-4.08,0.01-8.16,0.11-12.24c0.03-1.15-0.56-2.5,0.68-3.44C197.05,194.49,197.24,194.74,197.26,195.12z"/>
			<path class="st23" d="M349.77,225.79c-3.62-0.01-7.23,0.03-10.84-0.05c-1.17-0.03-2.53,0.52-3.45-0.75
				c0.1-0.42,0.36-0.67,0.78-0.74c4.76,0.43,9.61-0.88,14.3,0.76C350.29,225.27,350.03,225.53,349.77,225.79z"/>
			<path class="st24" d="M164.5,177.75c0.62-1.31,0.2-2.28-0.8-3.27c-0.91-0.91-0.82-2.03,0.2-2.92c0.72-0.63,1.57-0.74,2.4-0.25
				c1.12,0.66,1.71,1.99,0.86,2.79c-1.64,1.54-0.14,4.02-1.96,5.32C164.97,178.87,164.73,178.31,164.5,177.75z"/>
			<path class="st25" d="M391.01,169.52c5.06,2.47,3.49,7.17,3.79,11.25c-0.25,0.3-0.5,0.59-0.76,0.89
				c-1.14-0.8-0.92-2.03-0.78-3.09c0.45-3.33-0.4-6.12-3-8.32C390.41,169.91,390.66,169.67,391.01,169.52z"/>
			<path class="st26" d="M192.31,98.2c-1.01-2.3-2.92-3.86-4.62-5.6c-0.87-0.89-2.41-1.48-2-3.21c0.19-0.02,0.38-0.07,0.54-0.17
				c2.7,2.72,5.39,5.45,8.09,8.17C194.02,98.55,193.39,98.93,192.31,98.2z"/>
			<path class="st27" d="M198.17,92.83c-2.69-2.57-5.75-4.8-7.62-8.14c0.32-0.19,0.63-0.39,0.95-0.58c2.5,2.47,4.99,4.93,7.49,7.4
				C199.35,92.34,198.91,92.67,198.17,92.83z"/>
			<path class="st28" d="M312.8,27.13c-0.1,1.43-0.41,2.74-2.17,2.9c-0.92,0.08-1.74-0.22-2.05-1.19c-0.69-2.14,1.18-2.97,2.2-4.23
				C311.46,25.45,312.13,26.29,312.8,27.13z"/>
			<path class="st29" d="M162.22,128.92c-2.28-2.16-4.55-4.33-6.86-6.47c-0.74-0.69-0.84-1.41-0.41-2.27
				c0.18-0.01,0.36-0.03,0.54-0.04c2.47,2.69,4.93,5.39,7.4,8.08C162.79,128.55,162.56,128.79,162.22,128.92z"/>
			<path class="st30" d="M314.5,261c-2.36-2.61-6.11-4.08-6.68-8.16c2.75,2.22,5.28,4.66,7.49,7.43
				C315.04,260.51,314.77,260.76,314.5,261z"/>
			<path class="st31" d="M133.58,147.88c-3.61-4.19-3.61-4.19,0.04-6.18c1.35,1.98,1.15,4,0.13,6.04L133.58,147.88z"/>
			<path class="st32" d="M133.76,147.74c-0.04-2.01-0.09-4.03-0.13-6.04c0.13-0.15,0.22-0.32,0.27-0.51
				C135.91,143.12,135.82,147.08,133.76,147.74z"/>
			<path class="st33" d="M382.78,177.78c1.9,1.93,0.82,4.34,0.94,6.52c0.14,2.55-0.13,5.12-0.22,7.68c-0.25,0-0.5,0.01-0.74,0.03
				C382.76,187.27,382.77,182.52,382.78,177.78z"/>
			<path class="st34" d="M352.87,80.11c1.98-1.44,4.24-0.61,6.36-0.7c1.74-0.07,3.4-0.12,4.76-1.38c0.23,0.22,0.46,0.43,0.69,0.65
				c0,0.21-0.01,0.41-0.01,0.62c-0.62,1.99-2.34,2.01-3.93,2.05c-2.33,0.06-4.69,0.34-6.98-0.39
				C353.37,80.78,353.08,80.49,352.87,80.11z"/>
			<path class="st3" d="M369.25,82.5c0,0.23,0.01,0.46,0.01,0.7c-0.44,0.61-0.85,1.27-1.79,0.95c-1.94-1.31-3.66-2.75-2.83-5.5
				c0,0,0.03,0.04,0.03,0.04C366.21,79.96,367.73,81.23,369.25,82.5z"/>
			<path class="st35" d="M162.22,128.92c0.22-0.24,0.45-0.47,0.67-0.71c1.59-1.69,3.18-3.37,4.78-5.06
				c6.77-6.71,13.71-13.27,20.09-20.38c0.09-0.46,0.35-0.72,0.82-0.75c1.82-0.71,2-3.03,3.73-3.82c0.91,0.33,1.44-0.31,2.02-0.81
				c2.62-0.39,2.56-3.04,3.84-4.57c0.27-0.44,0.54-0.88,0.81-1.32c6.54-5.45,12.73-11.25,18.03-17.94c0.05-0.49,0.33-0.74,0.81-0.79
				c3.92-3.05,7.33-6.62,10.58-10.35c3.39-3.39,6.78-6.78,10.17-10.17l-0.04-0.33l0.3-0.15c10.64-10.54,21.35-21,31.86-31.66
				c3.14-3.19,7.14-5.46,9.66-9.31c1.12-1.72,1.96-0.27,2.86,0.62c8.03,7.97,16.09,15.91,24.15,23.84c1.05,1.04,1.95,2.34,3.68,2.32
				c0.36,0.33,0.69,0.68,0.55,1.24c2.48,3.78,5.55,6.94,9.51,9.18c6.4,6.9,13.86,12.77,19.66,20.26c1.92,0.28,2.03,2.18,3.03,3.24
				c2.86,3.02,5.44,6.4,9.08,8.61c0,0-0.02-0.02-0.02-0.02c3.37,2.94,6.9,5.71,9.65,9.3c0.04,0.17,0.07,0.34,0.11,0.52
				c4.24,5.26,9.02,9.98,14.12,14.39c1.81,2.66,4.36,4.6,6.64,6.81c3.4,3.63,6.48,7.59,10.68,10.38c0.24,0.23,0.48,0.46,0.72,0.69
				c7.25,5.51,13.28,12.27,19.43,18.92c0.06,0.16,0.12,0.33,0.18,0.49c0.33,1.59,0.43,3.17-0.1,4.74c0.16,0.67-0.13,0.85-0.74,0.69
				c-6.05,5.49-12.09,10.98-17.31,17.3c-0.41,0.51-0.96,0.69-1.6,0.64c-1.72,1.11-2.57,2.92-3.63,4.56
				c-0.25,0.24-0.5,0.49-0.74,0.73c-2.87,2.12-5.37,4.63-7.68,7.34c-3.2,3.27-6.4,6.55-9.6,9.83c-0.08,0.52-0.36,0.8-0.9,0.78
				c-0.37,0.26-0.74,0.51-1.11,0.77c-0.62,0.03-1.06-0.27-1.39-0.78c-0.71-1.81,0.29-3.06,1.44-4.22c1.72-1.74,3.39-3.52,5.03-5.34
				c11.31-10.58,21.96-21.81,32.99-32.67c2.09-2.06,0.7-3.2-0.67-4.57c-11.94-11.92-23.84-23.88-35.82-35.76
				c-2.23-2.37-4.56-4.66-6.91-6.92c-9.18-9.28-18.42-18.5-27.69-27.67c-18-18.2-36.2-36.2-54.28-54.33
				c-0.78-0.78-1.49-2.27-3.05-1.11c-1.49,1.04-2.65,2.45-3.92,3.72c-2.54,2.43-5,4.93-7.44,7.46c-2.35,2.21-4.6,4.51-6.82,6.84
				c-8.24,8.18-16.46,16.39-24.63,24.65c-7.09,6.9-14.06,13.93-21,20.99c-4.85,4.66-9.57,9.45-14.26,14.26
				c-4.09,3.93-8.08,7.96-12.03,12.03c-5.34,5.17-10.56,10.45-15.75,15.76c-7.01,6.76-13.74,13.81-20.73,20.58
				c-1.69,1.64-1.54,2.7,0.06,4.25c4.84,4.69,9.56,9.51,14.33,14.27c1.04,1.04,2.32,1.95,2.47,3.62c-0.12,0.55-0.3,1.03-1.03,0.81
				c-1.56-0.93-3.12-1.87-4.69-2.8l0.02,0.01c-2.42-3.36-5.41-6.1-8.88-8.34c-1.67,0.1-3.14,0.01-2.27-2.34
				c-1.14-1.28-2.18-2.66-3.44-3.82c-3.28-3.01-3.34-3.82-0.15-7.13c1.71-1.77,3.46-3.51,5.2-5.26
				C157.81,133.06,160.52,131.51,162.22,128.92z"/>
			<path class="st36" d="M238.84,51.77c-0.16,0.12-0.24,0.28-0.26,0.48c-0.47-0.11-1.04-0.17-1.03-0.82
				c0.11-4.65-0.58-9.32,0.41-13.95c1.76,2.54,0.46,5.38,0.74,8.07C238.92,47.61,238.81,49.7,238.84,51.77z"/>
			<path class="st37" d="M311.6,38.82c-0.18-0.41-0.37-0.82-0.55-1.24c4.17-0.04,8.34-0.07,12.52-0.11
				c-0.04,1.87-1.48,1.24-2.42,1.27C317.96,38.83,314.78,38.81,311.6,38.82z"/>
			<path class="st38" d="M165.18,162.06c-0.21,1.81-1.62,1.12-2.6,1.19c-2.29,0.18-4.69-0.54-6.69,1.39
				c-0.78,0.75-1.91,0.33-2.6-0.58c-0.58-0.75-0.7-1.59-0.09-2.4c0.57-0.75,1.47-1.39,2.23-0.86c3.08,2.12,6.55,0.64,9.77,1.27
				C165.19,162.07,165.18,162.06,165.18,162.06z"/>
			<path class="st39" d="M185.58,183.76c-3.45-2.59-6.27-5.81-9.02-9.1c0.21-0.54,0.54-0.92,1.17-0.92
				c3.37,3.03,7.17,5.69,9.02,10.08l-0.27,0.01l-0.26-0.07C186,184.14,185.79,184.13,185.58,183.76z"/>
			<path class="st40" d="M185.58,183.76c0.21,0,0.43,0,0.64,0c0.08,4.76,0.16,9.52,0.23,14.28c0.01,0.64-0.18,1.2-0.9,1.4
				C185.55,194.22,185.57,188.99,185.58,183.76z"/>
			<path class="st41" d="M149.48,125.98c4.35,1.8,6.36,4.81,6.03,9.03C155.29,130.81,151.08,129.27,149.48,125.98z"/>
			<path class="st42" d="M169.86,164.86c0.2-0.18,0.4-0.35,0.59-0.53c3.01-0.25,3.95,1.91,4.85,4.14c-0.1,0.58-0.44,0.99-0.95,1.26
				c-0.78,0.2-1.4-0.12-1.94-0.64c-1.03-1.44-3.14-2-3.4-4.09C169.29,164.95,169.58,164.9,169.86,164.86z"/>
			<path class="st43" d="M169.01,165c1.38,1.12,2.88,2.11,3.81,3.69c0.12,0.77-0.19,1.1-0.97,0.97c-1.27-1.26-2.7-2.41-3.76-3.82
				C167.1,164.51,168.56,165.15,169.01,165z"/>
			<path class="st44" d="M171.86,169.67c0.32-0.32,0.64-0.65,0.97-0.97c0.41,0.32,0.82,0.64,1.23,0.97
				c1.71,0.98,3.47,1.92,3.18,4.36c-0.23,0.22-0.45,0.44-0.68,0.65C174.99,173,173.42,171.33,171.86,169.67z"/>
			<path class="st45" d="M154.04,151.39c0.12,1.4,1.33,1.73,2.27,2.34c-1.25,1.39-2.39,1.03-3.27-0.34
				C152.35,152.33,152.6,151.5,154.04,151.39z"/>
			<path class="st46" d="M177.23,174.01c-0.9-1.57-2.62-2.54-3.18-4.36c0.28-0.28,0.55-0.57,0.83-0.86c2.34,0.11,3.64,1.9,5.23,3.23
				c11.38,11.56,22.89,22.99,34.42,34.4c6.42,6.61,12.96,13.09,19.54,19.54c11.39,11.6,22.94,23.05,34.49,34.48
				c3.32,3.57,6.99,6.8,10.24,10.42c2.04,2.28,3.4,1.98,5.42-0.05c13.18-13.32,26.31-26.69,39.77-39.73
				c8.78-8.51,17.02-17.54,25.87-25.96c1.4-1.33,2.58-3.19,4.99-2.75c1.31,0.93,0.38,1.63-0.23,2.4
				c-4.77,6.01-10.41,11.18-16.02,16.37c-1,0.92-2.26,1.53-2.34,3.1c-0.26,0.25-0.52,0.49-0.78,0.74c-3.77,2.71-6.64,6.31-9.74,9.69
				c-0.06,0.48-0.32,0.76-0.82,0.8c-6.56,4.91-11.69,11.26-17.28,17.15c-2.11,1.4-3.71,3.31-5.31,5.23
				c-3.6,3.58-7.2,7.16-10.81,10.73c-2.9,2.86-5.89,5.62-8.7,8.57c-1.34,1.41-2.1,0.63-3.04-0.29c-3.09-3.04-6.19-6.08-9.29-9.12
				c-0.99-0.62-2.34-0.88-2.44-2.41c-3.08-3.14-6.17-6.29-9.25-9.43l-0.34,0.06l-0.16-0.31c-3.32-3.43-6.64-6.85-9.96-10.28
				l-0.36,0.09c0,0-0.18-0.32-0.18-0.32c-12.09-12.17-24.18-24.34-36.25-36.53c-1.48-1.49-2.85-3.1-4.28-4.65
				c-3.78-2.45-5.94-6.72-10-8.85c-0.18-0.26-0.37-0.51-0.55-0.77c-2.78-4.03-6.73-6.93-9.96-10.53
				C183.58,180.56,180.4,177.29,177.23,174.01z"/>
			<path class="st47" d="M302.54,258.05c2.73,2.22,5.33,4.57,7.43,7.43C306.35,264.15,303.82,261.72,302.54,258.05z"/>
			<path class="st48" d="M247.78,245.14c0.16,0.12,0.34,0.2,0.54,0.23c-0.79,2.91-3.07,0.96-4.6,1.3c-2.5,0.56-5.62-1-7.21,2.36
				c-0.96,0.03-2.02-0.03-1.07-1.33c1.02-1.38,2.23-2.54,4.25-2.48C242.38,245.31,245.08,245.18,247.78,245.14z"/>
			<path class="st49" d="M207.43,219.75c-0.43,0.51-0.95,0.46-0.96-0.17c-0.04-4.7-0.01-9.41,0.04-14.11c0-0.24,0.48-0.47,0.74-0.71
				C207.31,209.75,207.37,214.75,207.43,219.75z"/>
			<path class="st50" d="M354.84,202.38c-7.01,5.5-12.79,12.26-19.06,18.51c-17.42,17.36-34.81,34.77-52.15,52.21
				c-1.49,1.5-2.49,1.62-3.96,0.06c-3.84-4.09-7.79-8.07-11.7-12.1c-0.29-0.68,0.13-0.96,0.66-1.18c1.73-0.1,2.67,1.17,3.72,2.19
				c2.24,2.16,4.41,4.39,6.61,6.59c2.92,2.91,2.92,2.92,5.74,0.1c11.71-11.7,23.4-23.41,35.11-35.12c0.62-0.61,1.24-1.21,1.84-1.84
				c9.66-9.61,19.26-19.28,28.91-28.89c1.22-1.22,2.29-2.69,4.16-3.05c0.92-0.03,1.78,0.22,2.57,0.68c0.46,0.33,0.76,0.76,0.79,1.34
				c-0.06,1.51-0.56,2.29-1.65,0.64C355.78,201.55,355.42,201.79,354.84,202.38z"/>
			<path class="st51" d="M358.07,201.88c-0.27-0.3-0.54-0.61-0.81-0.91c-0.95-1.01-0.74-2.11,0.03-3.01
				c3.15-3.63,6.65-6.92,10.27-10.07c0.88-0.76,1.78-0.79,2.47,0.33c0.31,0.25,0.62,0.5,0.93,0.74
				C367.25,193.85,362.95,198.16,358.07,201.88z"/>
			<path class="st52" d="M363.07,212.83c-1.44-0.16-1.26-1.24-1.28-2.23c-0.05-1.81,0.37-3.66-1.21-5.21
				c-0.71-0.69-0.57-1.88,0.28-2.67c0.71-0.66,1.56-0.71,2.41-0.27c1.02,0.53,1.61,1.76,1.09,2.46c-1.84,2.48-0.56,5.33-1.27,7.9
				c0,0,0.12,0.18,0.12,0.18L363.07,212.83z"/>
			<path class="st53" d="M372.08,188.2c0.3-0.26,0.6-0.52,0.9-0.78c1.41,1.59,0.27,3.9,1.61,5.59c0.65,0.82,0.35,2-0.63,2.59
				c-0.89,0.53-1.95,0.55-2.76-0.24c-0.81-0.8-0.9-2.03-0.2-2.71C372.4,191.32,372.31,189.82,372.08,188.2z"/>
			<path class="st54" d="M340.77,68.26c-6.8-6.51-13.89-12.74-19.65-20.26c1.11-0.05,1.85,0.61,2.57,1.33
				c5.01,5.02,10.03,10.03,15.02,15.06C339.77,65.46,340.69,66.65,340.77,68.26z"/>
			<path class="st55" d="M354.12,69.33c-0.19,1.25-0.8,2.11-2.16,2.09c-1.32-0.02-2.12-0.77-2.04-2.11c0.06-1.1,0.71-1.82,1.91-1.89
				C353.17,67.36,353.9,68.04,354.12,69.33z"/>
			<path class="st56" d="M394.64,164.97c0.3-0.79,1.01-0.57,1.6-0.64c1.92,3.01,5.68,4.49,6.78,8.19
				C399.4,170.92,397.46,167.46,394.64,164.97z"/>
			<path class="st57" d="M414.2,132.76c0.22,0,0.44,0,0.67,0c0.01,2.96,0.69,5.95-0.48,8.84c0,0,0.04,0.01,0.04,0.01
				C412.44,138.71,412.29,135.76,414.2,132.76z"/>
			<path class="st58" d="M413.55,147.03c0.25-0.23,0.49-0.46,0.74-0.69c1.27,1.25,0.88,2.66,0.39,4.28
				C413.03,149.7,413.78,148.2,413.55,147.03z"/>
			<path class="st59" d="M217.83,72.77c-0.27,0.26-0.54,0.53-0.81,0.79c-0.7-5.03-0.9-10.06-0.03-15.09
				c1.71,3.16,0.35,6.55,0.74,9.81C217.9,69.76,217.8,71.27,217.83,72.77z"/>
			<path class="st60" d="M324.91,235.48c0.27-0.27,0.55-0.53,0.82-0.8c3.53,0.1,7.07,0.15,10.59,0.34c1.02,0.06,2.6-0.83,2.88,1.18
				C334.45,235.86,329.6,237.18,324.91,235.48z"/>
			<path class="st61" d="M188.58,102.02c-0.27,0.25-0.55,0.5-0.82,0.75c-2.56-2.6-5.88-4.52-7.34-8.11
				C184.08,96.06,185.97,99.44,188.58,102.02z"/>
			<path class="st62" d="M167.44,122.95c-2.59,0.33-2.27-1.59-2.39-3.13c-0.23-2.92,0.47-5.89-0.48-8.77
				c2.49-0.56,1.33,1.43,1.45,2.28C166.49,116.54,165.01,120.02,167.44,122.95z"/>
			<path class="st63" d="M367.72,83.87c0.51-0.23,1.03-0.45,1.54-0.68c-1.15,3.3-3.47,5.44-6.66,6.71c0,0,0.02,0.03,0.02,0.03
				C362.74,86.59,365.32,85.31,367.72,83.87z"/>
			<path class="st64" d="M374.99,100.65c3.66,0,7.33,0,10.99,0c0,0.12,0.01,0.24,0.01,0.36c-3.67,0-7.33,0-11,0
				C375,100.89,375,100.77,374.99,100.65z"/>
			<path class="st65" d="M227.48,47.94c1.67,3.32,0.4,6.85,0.74,10.27c0.13,1.33,0.01,2.68,0.01,4.02
				c-1.81-1.98-0.67-4.37-0.83-6.55C227.22,53.11,227.44,50.52,227.48,47.94z"/>
			<path class="st66" d="M258.27,255.66c0.14,0.14,0.31,0.22,0.5,0.24c-0.1,0.47-0.1,1.12-0.74,1.11
				c-5.19-0.13-10.4,0.62-15.57-0.43c1.75-1.75,3.92-0.63,5.87-0.77C251.64,255.57,254.96,255.69,258.27,255.66z"/>
			<path class="st67" d="M383.67,110.9c4.32-1.31,8.71-0.67,13.08-0.41c-0.09,0.35-0.18,1-0.27,1
				C392.2,111.54,387.87,112.5,383.67,110.9z"/>
			<path class="st68" d="M414.2,132.76c-0.28,2.96-0.36,5.92,0.23,8.85c-5.49-3.9-9.66-9.19-14.45-13.83
				c-1.82-1.76-4.15-3.11-5.2-5.6C404.7,119.37,409.15,126.61,414.2,132.76z"/>
			<path class="st6" d="M367.72,83.87c-1.35,2.32-3.97,3.56-5.09,6.07c-3.66-2.88-7.37-5.71-9.78-9.84c2.8,0.07,5.61,0.08,8.41,0.24
				c1.52,0.09,2.57-0.5,3.39-1.69C364.7,80.96,366.95,81.98,367.72,83.87z"/>
			<path class="st69" d="M373,104.91c8.51,8.4,17.01,16.81,25.53,25.2c4,3.94,8.01,7.86,12.04,11.77c1.28,1.25,2.06,2.26,0.33,3.97
				c-11.02,10.85-21.95,21.8-32.93,32.7c-0.32,0.32-0.84,0.44-1.26,0.65c-0.75-0.3-1.11-0.83-1.04-1.65
				c0.86-2.85,3.16-4.65,5.21-6.48c1.76-1.57,3.14-3.34,4.47-5.21c0.76-0.71,1.8,0.28,2.57-0.43c6.38-6.14,12.46-12.56,18.84-18.68
				c2.17-2.08,1.92-3.56-0.09-5.54c-10.35-10.25-20.64-20.57-30.92-30.9c-1.29-1.3-2.93-2.39-3.22-4.44
				C372.6,105.49,372.75,105.18,373,104.91z"/>
			<path class="st70" d="M179.39,172.59c-1.5-1.26-3.01-2.53-4.51-3.79c-0.99-1.97-2.76-3.18-4.43-4.47
				c-5.31-6.46-11.66-11.91-17.44-17.91c-1.75-1.82-2.01-2.91-0.09-4.76c7.17-6.92,14.19-13.99,21.27-21
				c0.68-0.22,0.97,0.18,1.18,0.72c0.04,2.02-1.53,3.04-2.72,4.25c-5.16,5.23-10.39,10.37-15.55,15.6
				c-2.56,2.59-2.64,3.41,0.04,5.76c7.69,6.74,13.72,15.1,21.51,21.74c0.94,0.8,1.7,1.83,1.85,3.15
				C180.35,172.45,180.09,172.86,179.39,172.59z"/>
			<path class="st71" d="M279.9,14.9c1.73-2.41,2.94-0.63,4.14,0.56c7.42,7.41,14.82,14.84,22.21,22.28
				c10.81,10.9,21.6,21.82,32.4,32.73c-0.26,0.26-0.57,0.43-0.94,0.48c-2.08-0.23-3.17-1.88-4.47-3.18
				c-14.86-14.82-29.71-29.66-44.53-44.53c-2.57-2.58-5.29-4.94-8.35-6.91C279.94,15.94,279.66,15.5,279.9,14.9z"/>
			<path class="st72" d="M237.17,57.67c8.26-8.26,16.51-16.52,24.77-24.78c0.68-0.21,0.98,0.19,1.19,0.74
				c0.1,1.41-0.82,2.29-1.7,3.17c-6.66,6.73-13.34,13.44-20.06,20.1c-0.88,0.87-1.75,1.81-3.13,1.86
				C237.66,58.63,237.29,58.27,237.17,57.67z"/>
			<path class="st73" d="M237.17,57.67c0.29,0.29,0.58,0.58,0.87,0.87c0.41,1.32-0.48,2.14-1.25,2.92
				c-5.6,5.7-11.25,11.35-16.95,16.96c-0.8,0.79-1.66,1.55-2.92,1.47c-0.56-0.2-0.98-0.48-0.76-1.18
				C223.17,71.69,230.17,64.68,237.17,57.67z"/>
			<path class="st74" d="M376.05,177.8c0.22,0.46,0.45,0.93,0.67,1.39c-1.71,1.86-3.4,3.74-5.13,5.59c-0.92,0.98-1.9,1.91-1.55,3.45
				c-1.41-0.77-2.08,0.52-2.79,1.19c-2.99,2.79-5.85,5.72-8.81,8.54c-0.91,0.86-1.15,1.87-1.17,3.02c-0.8-0.11-1.68,0.03-2.27-0.73
				c-0.38-2.76,2.84-3.65,3.14-6.07c1.07-2.05,2.92-3.32,4.68-4.68c0.3-0.18,0.61-0.32,0.93-0.45c3.95-2.65,6.93-6.3,10.11-9.75
				C374.46,178.64,374.67,177.35,376.05,177.8z"/>
			<path class="st75" d="M337.6,70.58c0.35-0.04,0.7-0.07,1.04-0.11c9.23,9.22,18.46,18.44,27.69,27.67
				c0.18,0.21,0.24,0.42,0.19,0.63c-0.06,0.21-0.11,0.32-0.17,0.32c-1.8,0.42-2.72-0.94-3.73-1.95
				c-7.75-7.68-15.46-15.4-23.14-23.14C338.54,73.07,337.37,72.19,337.6,70.58z"/>
			<path class="st76" d="M175,121.5c-0.27-0.28-0.54-0.56-0.81-0.84c5.25-5.25,10.49-10.49,15.74-15.74
				c0.59,0.13,0.95,0.49,1.09,1.07c-0.07,1.51-1.16,2.41-2.1,3.37c-3.38,3.43-6.77,6.86-10.24,10.21
				C177.69,120.55,176.83,122.02,175,121.5z"/>
			<path class="st77" d="M216.17,78.7c0.29,0.29,0.59,0.59,0.88,0.88c0.13,0.37,0.21,0.81-0.02,1.08
				c-4.22,4.88-8.3,9.91-13.88,13.37c-0.61-0.07-0.96-0.43-1.11-1C206.5,88.01,211.2,83.23,216.17,78.7z"/>
			<path class="st78" d="M202.04,93.04c0.22,0.21,0.44,0.42,0.65,0.63c0.14,0.77-0.01,1.52-0.5,2.1c-2.94,3.51-6.19,6.71-9.65,9.69
				c-0.47,0.41-1.09,0.57-1.73,0.33c-0.29-0.29-0.59-0.58-0.88-0.88C193.8,100.79,197.61,96.59,202.04,93.04z"/>
			<path class="st79" d="M268.75,26.25c2.23-2.76,4.7-5.3,7.48-7.52c0.58,0.14,0.94,0.48,1.05,1.08c-1.71,3.43-4.11,6.17-7.79,7.57
				C268.94,27.21,268.51,26.95,268.75,26.25z"/>
			<path class="st80" d="M268.75,26.25c0.25,0.25,0.5,0.5,0.74,0.75c-0.77,3.67-3.19,5.73-6.62,6.83c-0.31-0.31-0.63-0.62-0.94-0.93
				C264.04,30.51,266.22,28.2,268.75,26.25z"/>
			<path class="st81" d="M366.24,99.11c0.03-0.32,0.06-0.65,0.09-0.97c2.22,2.26,4.44,4.52,6.67,6.78c-0.02,0.3-0.04,0.6-0.06,0.9
				C369.42,104.87,367.19,102.63,366.24,99.11z"/>
			<path class="st82" d="M277.04,19.55c-0.27-0.27-0.54-0.55-0.8-0.82c1.22-1.28,2.45-2.56,3.67-3.84c0.32,0.32,0.64,0.64,0.96,0.96
				C280.64,18.18,279.48,19.53,277.04,19.55z"/>
			<path class="st83" d="M268.74,260.25c-0.26,0.27-0.52,0.54-0.78,0.8c-11.52-11.5-23.04-23-34.56-34.5
				c0.14-0.59,0.5-0.95,1.09-1.09c1.94,0.17,2.97,1.7,4.18,2.9c9.5,9.45,18.98,18.94,28.41,28.46
				C267.98,257.75,269.29,258.58,268.74,260.25z"/>
			<path class="st84" d="M179.39,172.59c0.28-0.26,0.55-0.52,0.83-0.78c2-0.59,2.91,1.03,3.97,2.1
				c8.55,8.67,17.47,16.97,25.66,25.99c1.79,1.98,4.64,3.07,5.19,6.1c-0.15,0.59-0.51,0.95-1.1,1.09
				C202.42,195.6,190.91,184.1,179.39,172.59z"/>
			<path class="st85" d="M213.94,207.1c0.29-0.29,0.58-0.59,0.87-0.88c1.49-0.42,2.33,0.66,3.19,1.5
				c4.98,4.89,9.92,9.83,14.81,14.82c0.84,0.85,1.93,1.69,1.46,3.18c-0.29,0.28-0.58,0.56-0.86,0.84
				C226.91,220.07,220.42,213.59,213.94,207.1z"/>
			<path class="st35" d="M234.26,225.72c-6.49-6.5-12.97-13-19.46-19.5c-11.53-11.47-23.06-22.94-34.58-34.41
				c-8.32-8.4-16.58-16.85-25-25.16c-2.05-2.02-2.07-3.27,0.02-5.3c6.7-6.51,13.19-13.22,19.77-19.86
				c5.27-5.23,10.54-10.47,15.81-15.7c4.12-3.89,8.21-7.8,11.88-12.13c5.07-4.41,9.81-9.15,14.36-14.09
				c7-7.01,13.99-14.03,20.99-21.04c8.28-8.24,16.56-16.48,24.84-24.72c2.21-2.28,4.41-4.55,6.62-6.83
				c2.78-2.21,5.23-4.75,7.54-7.44c1.28-1.23,2.55-2.47,3.83-3.7c1.57-0.45,2.2,0.85,3.05,1.69c16.2,16.04,32.38,32.09,48.57,48.13
				c1.68,1.66,3.41,3.27,5.12,4.91c9.25,9.81,18.95,19.17,28.64,28.53c2.11,2.36,4.19,4.75,6.71,6.7
				c10.33,10.5,20.65,21.02,31.01,31.49c6.71,6.78,6.79,6.79,0.12,13.52c-5.27,5.31-10.66,10.5-16,15.74
				c-2.58-0.89-1.25-2.39-0.5-3.68c1.46-2.52,3.75-4.33,5.69-6.43c3.87-2.94,6.8-6.85,10.37-10.09c1.73-1.57,1.46-2.86,0.02-4.41
				c-2.96-3.18-6.01-6.26-9.22-9.19c-0.83-0.83-1.79-1.5-2.73-2.21c-0.27-0.21-0.51-0.45-0.74-0.7c-0.34-0.38-0.64-0.79-0.92-1.22
				c-1.68-2.55-3.65-4.8-6.31-6.39c-0.41-0.33-0.76-0.71-1.06-1.13c-2.83-3.39-5.97-6.46-9.32-9.32c-0.43-0.3-0.81-0.66-1.15-1.06
				c-2.68-3.6-6.26-6.31-9.32-9.54c-0.38-0.35-0.73-0.71-1.09-1.08c-2.99-3.45-6.37-6.52-9.62-9.71c-3.5-3.47-6.76-7.17-10.49-10.42
				c-5.44-5.49-10.91-10.95-16.36-16.42c-2.67-2.85-5.24-5.8-8.4-8.15c-1.54-2.75-4.28-4.35-6.34-6.61
				c-0.24-0.25-0.46-0.52-0.66-0.81c-3.51-3.1-6.29-6.96-10.17-9.66c-0.29-0.2-0.55-0.44-0.79-0.7
				c-4.47-5.39-9.72-10.03-14.47-15.14c-1.65-1.78-3.19-1.73-5.17-0.19c-5.94,4.64-10.45,10.74-16.14,15.62
				c-2.42,2.07-4.82,4.17-6.65,6.82c-3.03,2.69-5.24,6.16-8.28,8.84c-3.09,3.37-6.43,6.49-9.61,9.77c-0.35,0.38-0.71,0.74-1.08,1.1
				c-3.14,2.98-5.99,6.25-9.39,8.95c-3.32,4.13-7.33,7.59-11.1,11.27c-0.19,0.29-0.4,0.56-0.63,0.82
				c-4.35,3.85-8.2,8.19-12.28,12.31c-1.54,1.51-3.08,3.01-4.57,4.57c-0.34,0.37-0.69,0.72-1.05,1.07c-1.46,1.38-2.81,2.88-4.34,4.2
				c-0.25,0.23-0.53,0.43-0.81,0.62c-6.37,7.04-13.29,13.52-19.93,20.29c-0.35,0.37-0.73,0.71-1.12,1.03
				c-1.32,1-2.53,2.12-3.54,3.45c-0.31,0.41-0.65,0.79-1,1.16c-2.37,2.39-4.67,4.86-7.15,7.13c-2.2,2.02-1.94,3.64,0.09,5.6
				c12.03,11.58,23.69,23.54,35.55,35.3c0.38,0.35,0.74,0.72,1.09,1.1c3.16,3.32,6.51,6.45,9.67,9.76
				c3.6,3.59,7.21,7.16,10.69,10.87c9.75,9.49,19.58,18.9,28.74,28.96c0.84,0.93,1.95,1.56,2.73,2.55
				c2.98,3.96,7.04,6.89,10.3,10.58c3.44,2.24,5.55,5.86,8.76,8.34c0.77,0.68,1.46,1.45,2.13,2.24c3.17,3.01,6.12,6.23,9.36,9.17
				c1.37,1.25,2.91,1.94,4.22,0.33c2.68-3.29,6.51-5.48,8.67-9.24c0.31-0.43,0.68-0.8,1.1-1.12c3.53-1.63,5.12-5.32,8.02-7.61
				c3.85-4.09,8.33-7.54,11.87-11.93c0.22-0.27,0.47-0.51,0.73-0.74c1.22-1.03,2.75-1.47,4.16-2.14c0.66-0.28,1.32-0.54,2.05-0.22
				c0.25,0.32,0.21,0.62-0.07,0.9c-10.63,10.73-21.24,21.48-31.89,32.19c-6.91,6.94-6.92,6.91-13.73,0.03
				c-2.02-2.04-4.11-4.01-6.16-6.01C257.25,248.74,245.76,237.23,234.26,225.72z"/>
			<path class="st86" d="M314.53,236.3c-3.11,5.09-8.32,8.2-12.03,12.72c-0.36-0.26-0.67-0.56-0.95-0.9
				c-0.76-1.11-1.81-1.73-3.15-1.72c-12.96,0.09-25.92-0.45-38.87,0.28c-0.21,0.06-0.42,0.13-0.63,0.19
				c-3.48-3.53-6.95-7.05-10.43-10.58c0.23-0.28,0.52-0.49,0.84-0.64c6.44-0.3,12.89-0.18,19.37-0.02
				c-0.67-0.95-1.44-0.04-2.15-0.18c-4.99,0.09-9.99-0.06-14.97,0.08c-2.06,0.06-3.67-0.65-4.98-2.07
				c-7.63-8.24-15.72-16.02-23.73-23.89c-3.31-3.25-6.17-6.44-5.79-11.43c-0.11-0.98-0.06-1.92,0.86-2.55
				c2.62,0.07,3.53,2.49,5.25,3.8c1.44,1.1,2.23,3.11,4.44,3.11c3.81,0.35,4.29,3.71,5.67,6.25c1.27,1.36,2.66,2.6,3.93,3.96
				c3.05,3.78,6.89,6.77,10.27,10.21c1.07,1.09,2.25,1.35,3.71,1.17c1.48-0.19,3.15-0.47,4.39,0.34c2.39,1.57,3.81,0.62,5.09-1.38
				c2.34-0.55,4.47,0.04,6.52,1.14c1.36,2.37,3.15,1.29,4.9,0.59c2.73-0.34,5.39,0.26,8.08,0.47c4.29,0.34,8.56-0.72,12.86-0.91
				c0.97-0.04,1.94-0.32,2.93-0.2c5.55,1.03,11.14,0.26,16.71,0.5c3.83,0.17,7.69-0.37,11.51,0.34c1.85,1.01,0.91,2.35,0.27,3.47
				c-0.8,1.39-1.83,2.66-2.43,4.17c-0.5,0.47-1,0.94-1.5,1.41c-0.03-0.34-0.06-0.69-0.09-1.03c-1.38-0.87-1.77-0.4-1.42,1.06
				c-1.49,0.74-2.97,1.47-4.46,2.21c-1.28-1.12-2.84-0.77-4.3-0.77c-9.1-0.04-18.2,0-27.29-0.03c-1.42,0.33-2.7-1.3-4.56-0.29
				c1.46,1.28,2.78-0.03,3.96,0.32c9.31-0.02,18.6-0.02,27.89,0.01C311.72,235.52,313.27,235.19,314.53,236.3z"/>
			<path class="st35" d="M322.03,232.64c-0.52-2.93,1.68-4.65,3.01-6.76c-0.04-0.57,0.22-1.02,0.59-1.43
				c2.85-3.39,6.81-5.73,9.11-9.65c0.31-0.44,0.68-0.82,1.09-1.16c3.99-2.77,7.2-6.36,10.4-9.96c2.8-3.14,5.65-6.24,9.01-8.79
				c0.99-0.75,1.96-2.03,3.55-1.27c0.06,0.03,0.1,0.19,0.09,0.29c-0.01,0.12-0.08,0.23-0.12,0.35c0.27,2.95-2.5,3.99-3.77,5.98
				c-8.93,8.82-17.85,17.64-26.79,26.45C326.17,228.7,324.09,230.66,322.03,232.64z"/>
			<path class="st87" d="M394.17,156.93c-1.65,2.42-4.27,3.95-5.79,6.51c-0.64,1.07-1.63,1.94-0.31,3.13
				c-1.85,2.8-1.28-1.33-2.33-0.81c-1.54,1.81-2.3,4.72-5.64,3.95c-5.48-3.91-8.27-8.89-7.2-15.93c0.52-3.41,0.22-6.98-0.1-10.48
				c0.43,5.06,0.29,10.13,0.13,15.18c-0.09,2.99,0.63,5.26,2.94,7.23c1.59,1.35,3.32,2.69,4.17,4.74c-0.93,2.84-2.62,4.99-5.47,6.1
				c-2.58-2.34-4.21-5.5-6.97-7.74c-2.37-1.93-4.36-4.34-6.67-6.39c-0.25-0.33-0.4-0.7-0.48-1.1c-0.09-3.84,0.79-7.6,1.08-11.41
				c0.39-5.13-0.12-10.12-0.59-15.16c-0.16-1.73-0.48-3.47,0.78-4.97c1.2-1.14,2.72-1.09,4.21-1.1c7.2-0.04,14.4-0.01,21.61-0.02
				c1.53,0,2.97,0.22,4.24,1.12l-0.07-0.08c2.18,2.8,2.78,5.99,2.65,9.48c-0.21,5.48,0.12,10.96-0.16,16.44
				C394.15,156.05,394.13,156.49,394.17,156.93z"/>
			<path class="st88" d="M374.49,176.23c1.74-1.76,3.48-3.52,5.22-5.29c0.45-0.37,0.17-1.15,0.8-1.43c2.32-0.45,2.87-3.37,5.23-3.77
				c-0.63,4.34-4.82,5.91-7.08,8.98c-0.77,1.04-1.88,1.92-2.62,3.06c-2.89,4.83-7.4,8.16-11.28,12.05c-0.12,0.12-0.6-0.12-0.92-0.19
				c-0.69-0.78-0.76-1.69-0.54-2.66c1.81-3.82,5.11-6.33,8.06-9.16C372.23,176.96,373.35,176.57,374.49,176.23z"/>
			<path class="st89" d="M358.76,194.27c-5.22,1.82-7.98,6.51-11.69,10.07c-3.6,3.46-6.32,7.87-11.09,10.04
				c-3.25,0.57-6.5,0.81-9.75-0.02c-1.36-1.09-0.44-2.09,0.36-2.71c3.45-2.7,6.67-5.75,10.73-7.59c1.75-0.65,3.41,1.08,5.38,0.38
				c-1.07-1.47-2.6-0.11-3.54-1.06c-0.37-2.4,1.37-4.02,2.62-5.48c2.48-2.88,4.79-5.88,7.24-8.78c0.57-0.67,1.24-1.24,2.23-1.09
				c2.4,1.69,0.13,3.86,0.61,6.34c1.1-3.35,0.02-6.01-0.39-8.7c1.32-5.05,4.39-9.34,6.23-14.17c0.35-0.92,1.07-1.74,2.31-1.05
				c2.14,1.65,2.87,3.85,2.82,6.51c-0.07,4.27-0.18,8.54,0.4,12.79C361.76,191.25,360.26,192.76,358.76,194.27z"/>
			<path class="st90" d="M363.26,189.75c-2.01-2.42-1.44-5.3-1.43-8.07c0.01-4,0.46-8.07-2.41-11.45c0.19-0.11,0.39-0.21,0.58-0.32
				c3.23,0.37,4.23,2.65,4.38,5.42c0.2,3.8,0.35,7.61-0.44,11.38c-0.03,0.98-0.06,1.96-0.09,2.94
				C363.65,189.7,363.46,189.73,363.26,189.75z"/>
			<path class="st1" d="M325.86,63c2.91,1.2,4.15,4.14,6.31,6.14c3.54,3.26,6.82,6.81,10.21,10.24c-0.12,0.17-0.25,0.34-0.37,0.51
				c-3.6,1.47-7.41,0.21-11.08,0.87c-0.4,0.1-0.81,0.12-1.22,0.09c-4.69-0.97-7.85-4.68-12.01-6.68
				c-17.17-8.24-34.94-10.47-53.51-6.14c-1.55,0.36-3.14,1.21-4.44-0.5c-1.35-4.2-1.65-8.13,2.27-11.35
				c2.47-2.04,4.41-4.67,6.97-6.65c3.47-1.55,7.12-0.53,10.68-0.74c2.35-0.13,4.73-0.18,7.07,0.11c1.16,0.23,2.32,0.77,4.02,0.11
				c-1.48-1.23-2.58-0.07-3.62-0.17c-5.8,0.02-11.6-0.46-17.38,0.26c-3.91,2.64-7.25,6.04-9.97,9.73c-1.8,2.44-1.39,6.08,0.11,9.13
				c-3.2,2.6-6.67,4.27-10.95,3.3c-1.45-2.77-0.56-5.76-0.76-8.65c-0.19-2.8,0.22-5.63-0.25-8.42c-0.14-0.36-0.26-0.72-0.36-1.09
				c2.89-2.85,5.07-6.38,8.34-8.88c0.23-0.1,0.54-0.15,0.66-0.34c3.79-5.83,9.47-6.29,15.73-6.04c8.35,0.33,16.72,0.07,25.07,0.08
				c0.91-0.09,1.89,0.37,2.74-0.33c4.33,2.65,7.38,6.62,10.68,10.33c-3.48,1.08-7.09,0.01-10.58,0.97
				c3.49-1.24,7.14,0.15,10.63-0.92c2.38,2.14,5.35,3.69,6.69,6.84C320.06,57.79,322.74,60.61,325.86,63z"/>
			<path class="st87" d="M172.72,128.13c6.82-6.92,13.63-13.85,20.45-20.77c1.57,1.43,3.44,2.63,3.82,4.99
				c0.25,22.29,0.06,44.58,0.09,66.86c0,1.35,0.12,2.78-1.11,3.79c-10.18-10.06-20.36-20.11-30.54-30.17
				c-2.21-2.18-4.36-4.43-6.64-6.53c-1.71-1.58-1.98-2.81-0.05-4.53c2.97-2.64,5.72-5.54,8.56-8.34
				c5.95,5.62,11.56,11.58,17.44,17.26c1.45,1.4,1.53,2.99,1.51,4.75c-0.03,1.86-0.03,3.72,0.04,5.58c0,0.49-0.08,0.98,0.34,1.46
				c-0.76-3.22-0.21-6.45-0.45-9.68c-4.64-6.02-10.57-10.8-15.7-16.35c-0.96-1.04-2.51-1.78-2.25-3.61
				c0.49-2.01,2.05-2.99,3.73-3.86c3.52,3.65,8.24,2.83,12.59,3.35c0.48,0.06,0.95,0.31,2.21-0.52c-2.76,0.17-4.78,0.01-6.77,0.21
				C176.62,132.37,174.17,131.25,172.72,128.13z"/>
			<path class="st7" d="M193.71,107.11c1.47-1.46,2.95-2.93,4.42-4.39c2.61,0.59,3.81,2.96,5.62,4.55c1.55,1.37,2.83,3.09,5.03,3.54
				c0.26,0.28,0.42,0.6,0.51,0.97c-0.41,4.11-2.79,7.6-3.62,11.6c-0.57,2.75-1.86,5.44-0.1,8.2c-0.66,3.37,1.02,7.33-2.45,10.01
				c-1.72,3.52-0.74,7.25-0.56,10.81c0.13,2.63,0.47,5.36,1.16,7.95c0.12,0.86,0.9,0.52,1.39,0.74c2.23,1.71,2.02,4.17,2.04,6.56
				c-1.49,2.98,1.11,5.68,0.61,8.6c-0.58,5.5,0.37,11.04-0.53,16.52c-0.2,0.4-0.5,0.71-0.9,0.92c-3.15-3.35-6.78-6.25-9.57-9.96
				c-0.17-16.94,0.11-33.88-0.19-50.82c-0.12-7.08,0.18-14.19,0.06-21.28C196.21,109.78,194.03,109.04,193.71,107.11z"/>
			<path class="st91" d="M302.51,248.29c0,0.24-0.01,0.48-0.01,0.73c-3.18,2.01-4.36,6.21-8.2,7.5c-4.79-0.24-9.6,0.39-14.38-0.3
				c3.24,0.45,6.51,0.18,9.76,0.31c1.31,0.05,2.76-0.44,3.84,0.79c-2.21,4.46-6.76,6.73-9.8,10.42c-1.15,1.39-2.34,1.18-3.67-0.2
				c-3.41-3.55-6.98-6.93-10.49-10.39c0.7-1.8-0.49-2-1.79-2.1c-3.58-2.05-5.28-6.14-8.87-8.17c0,0,0.2-0.22,0.2-0.22
				c1.09-0.83,2.37-0.63,3.59-0.64c11.42-0.02,22.85,0.03,34.27-0.05C299.25,245.95,301.12,246.43,302.51,248.29z"/>
			<path class="st92" d="M262.73,37.11c5.91-5.46,10.86-11.92,17.42-16.72c1.02-0.75,1.66-1.82,3.03-0.41
				c5.25,5.4,10.6,10.71,15.87,16.09c0.31,0.31,0.32,0.92,0.47,1.38c-0.63,0.76-1.51,0.79-2.38,0.78
				c-11.15-0.06-22.3,0.22-33.45-0.14C263.19,37.93,262.88,37.6,262.73,37.11z"/>
			<path class="st89" d="M203.31,97.33c4.29-4.21,7.99-9.03,12.9-12.6c1.8,1.66-0.07,3.82,1.06,5.57c-0.21-1.88,0.23-3.85-1.05-5.58
				c0.67-2.67,3.47-3.31,4.97-5.24c1.89-2.42,4.16-4.55,6.27-6.81c0.35,0.24,0.61,0.55,0.78,0.93c0.71,3.38,0.08,6.81,0.42,10.2
				c0.1,0.38,0.12,0.76,0.09,1.14c-1.55,4.27-5.74,6.38-8.19,9.95c-1.64,2.38-2.86,5.34-5.99,6.4c-4.01,0.64-7.83,0.59-10.68-2.97
				C203.63,98.04,203.44,97.7,203.31,97.33z"/>
			<path class="st93" d="M373.62,111.06c3.95,2.58,7.1,5.95,9.86,9.73c-0.72,0.83-1.71,1.02-2.72,1.01
				c-6.86-0.04-13.73,0.34-20.58-0.21c-3.86-2.69-5.53-6.81-4.18-10.32C361.86,110.11,367.74,110.61,373.62,111.06z"/>
			<path class="st94" d="M383.96,121.64c3.41,1.14,5.28,3.86,6.94,6.79c-1.11,1.49-2.72,0.88-4.13,0.92
				c-8.15,0.21-16.31-0.32-24.45,0.28c-0.42,0.31-1.04,0.49-1.31,0.07c-1.58-2.51-2.58-5.13-0.88-8.03
				C368.09,121.36,376.02,121.44,383.96,121.64z"/>
			<path class="st11" d="M394.86,131.97c4,3.01,7.07,6.96,10.68,10.36c1.72,1.62,1.04,3.08-0.31,4.08
				c-4.12,3.07-6.69,7.73-11.05,10.51c0,0-0.18-0.19-0.18-0.19c-0.79-7.65-0.22-15.32-0.29-22.97
				C393.7,132.99,394.15,132.36,394.86,131.97z"/>
			<path class="st95" d="M237.97,62.8c3.21-3.23,6.41-6.47,9.62-9.7c0,0,0.17,0.15,0.17,0.15c1.46,2.43,0.6,5.1,0.71,7.66
				c0.15,3.35,0.05,6.72,0.03,10.08c-1.21,3.61-5.15,6.24-9.68,6.48c-0.36-0.26-0.63-0.59-0.81-1
				C237.38,71.91,237.6,67.36,237.97,62.8z"/>
			<path class="st96" d="M217.02,204.73c-3.57-3.68-7.14-7.36-10.7-11.04c0,0,0.19-0.21,0.19-0.21c0.85-5.3,0.13-10.64,0.37-15.94
				c0.04-2.11,1.04-1.69,1.93-0.6c1.42,1.73,2.25,3.85,3.23,5.85c0.56,1.14,1.04,2.25,2.32,2.73c1.92,1.31,2.64,3.53,3.99,5.28
				c0.45,0.79,0.81,1.59,0.47,2.53c-0.2,0.3-0.48,0.51-0.83,0.61c-0.41,0.47-1.72-0.62-1.38,0.28c1.2,3.18,1.23,6.39,1.01,9.67
				C217.48,204.21,217.28,204.49,217.02,204.73z"/>
			<path class="st97" d="M363.37,100.42c3.3,3.2,6.97,6.03,9.61,9.87c-3.04,1.49-6.28,0.46-9.42,0.69c-2.33,0.17-4.67-0.03-7,0.09
				c-2.95-0.44-5.89-4.54-6.35-8.87c0.37-0.8,1.05-1.19,1.85-1.42c0.39-0.09,0.78-0.1,1.17-0.06
				C356.61,100.99,360.01,101.28,363.37,100.42z"/>
			<path class="st98" d="M227.47,73.39c0.01-0.24,0-0.48-0.01-0.73c3.26-2.97,6.51-5.95,9.77-8.92c1.47,2,0.5,4.28,0.75,6.42
				c0.27,2.29-0.52,4.67,0.57,6.89c0.1,0.09,0.19,0.17,0.28,0.26c0.1,0.51,0.08,1.1-0.33,1.35c-3.39,2.05-5.85,5.6-10.09,6.26
				l-0.18-0.21C227.18,81,228.62,77.11,227.47,73.39z"/>
			<path class="st99" d="M352.86,89.89c3.49,3,6.8,6.19,9.69,9.79c-2.51,2.11-5.47,0.9-8.23,1.06c-1.34,0.08-2.72-0.38-3.96,0.48
				c-0.57,0.37-1.35,0.51-1.73,0.06c-2.8-3.3-6.13-6.27-7.13-10.77c0.3-0.28,0.64-0.49,1.03-0.62c3.24-0.35,6.48-0.34,9.72-0.01
				C352.46,89.89,352.66,89.89,352.86,89.89z"/>
			<path class="st100" d="M342.33,90.72c-0.28,0.01-0.56,0.02-0.84,0.03c-4.23-2.98-8.5-5.92-11.39-10.37l0.28-0.23
				c3.88-0.76,7.84,0.22,11.72-0.53c0.09-0.08,0.19-0.17,0.29-0.25c3.83,3.17,7.14,6.86,10.48,10.52c-0.09,0.09-0.19,0.17-0.29,0.25
				C349.19,90.88,345.68,89.52,342.33,90.72z"/>
			<path class="st101" d="M196.7,110.29c0.62,1.02,0.54,2.15,0.54,3.27c-0.01,22.43-0.01,44.86-0.02,67.29
				c0,0.98,0.21,2.01-0.46,2.88c-0.26-0.24-0.52-0.48-0.78-0.73c-0.01-23.98-0.03-47.96-0.04-71.94
				C195.69,110.32,196.04,110.16,196.7,110.29z"/>
			<path class="st11" d="M198.99,101.97c1.44-1.55,2.88-3.1,4.32-4.64c0,0,0.16,0.15,0.16,0.15c2.47,4.14,6.62,3.31,10.41,3.52
				c1.22,1.22,0.73,2.63,0.02,3.68c-1.51,2.25-2.12,5.24-4.98,6.46l-0.19-0.14C204.1,109.5,201.45,105.84,198.99,101.97z"/>
			<path class="st102" d="M217.02,204.73c-0.03-0.25-0.04-0.5-0.02-0.74c1.07-1.91-0.38-4.17,0.85-6.05
				c-0.56,6.62,4.22,10.09,8.22,14.05c6.99,6.93,13.97,13.86,20.87,20.88c1.35,1.37,2.73,1.9,4.61,1.88
				c4.98-0.06,9.97,0.05,14.95,0.09c-0.5,1.91-2.04,0.92-3.08,0.99c-4.71,0.33-9.44-0.42-14.14,0.4c-0.27,0.02-0.54,0.04-0.8,0.06
				C238.16,225.6,227.77,214.99,217.02,204.73z"/>
			<path class="st103" d="M168.24,132.85c5.54,5.64,11.09,11.28,16.63,16.93c0.76,0.78,1.85,1.29,2.07,2.51
				c-0.71,2.42-0.14,4.89-0.33,7.33c-0.06,0.78,0.25,1.92-1.25,1.55c1.17-5.24,0.25-9.56-4.25-13.23
				c-4.23-3.45-7.86-7.63-11.73-11.52c-0.85-0.86-2.04-1.52-2.08-2.97C167.62,133.25,167.93,133.05,168.24,132.85z"/>
			<path class="st104" d="M298.84,38.89c-10.44,0.05-20.89,0.25-31.33,0.08c-3.63-0.06-6.48,0.69-8.79,3.61
				c-0.58,0.74-1.09,2.48-2.8,1.63c1.74-2.88,4.29-4.98,6.81-7.11c0,0,0.01,0.37,0.01,0.37c2.4,0.89,4.89,0.35,7.33,0.38
				c8.54,0.08,17.08,0,25.62,0.07C296.76,37.93,298.24,37.15,298.84,38.89z"/>
			<path class="st105" d="M383.96,121.64c-8.09,0.8-16.21,0.06-24.31,0.37c-0.48-0.36-0.5-0.71,0.03-1.04
				c7.93-0.06,15.86-0.12,23.79-0.18C383.64,121.07,383.8,121.36,383.96,121.64z"/>
			<path class="st106" d="M172.72,128.13c3.62,3.79,7.87,4.04,12.49,2.19c1.08-0.43,1.99-0.12,2.63,0.74c0.71,0.95,0.36,2-0.34,2.73
				c-0.76,0.79-1.98,0.86-2.71,0.09c-1.22-1.28-2.69-1.34-4.14-1.13c-3.71,0.53-6.54-0.78-8.68-3.77
				C172.22,128.71,172.47,128.42,172.72,128.13z"/>
			<path class="st107" d="M293.52,257.3c-4.55,0.04-9.15-1.02-13.63,0.71c-0.81,0.32-1.75,0.11-2.31-0.75
				c-0.44-0.68-0.48-1.38-0.09-2.12c0.49-0.93,1.54-1.34,2.2-0.91c4.13,2.68,8.7,1.04,13.04,1.51c0.63,0.07,1.24,0.1,1.57,0.76
				C294.04,256.78,293.78,257.04,293.52,257.3z"/>
			<path class="st108" d="M298.84,38.89c-1.62-0.98-3.41-0.52-5.11-0.53c-9.22-0.05-18.44,0-27.66-0.06
				c-1.11-0.01-2.54,0.7-3.33-0.82c12.26-0.01,24.52-0.02,36.78-0.03c0.19,0.1,0.39,0.15,0.6,0.14
				C300.26,38.57,299.66,38.84,298.84,38.89z"/>
			<path class="st109" d="M355.6,111c2.6-1.64,5.47-0.56,8.2-0.73c3.05-0.19,6.12-0.01,9.19,0.01c0.21,0.26,0.43,0.52,0.64,0.78
				c-4.03,1.4-8.2,0.36-12.29,0.63c-1.83,0.12-3.68-0.02-5.52-0.04C355.55,111.5,355.48,111.28,355.6,111z"/>
			<path class="st110" d="M394.86,131.97c-1.39,5.86-0.4,11.81-0.69,17.72c-0.11,2.35-0.12,4.7-0.18,7.05
				c-1.39-0.86-0.74-2.24-0.76-3.37c-0.08-5.21-0.36-10.45,0.08-15.63c0.25-2.99-2.5-5.11-1.59-8.04
				C392.77,130.46,393.81,131.21,394.86,131.97z"/>
			<path class="st111" d="M362,129.73c0.89-1.6,2.42-0.9,3.68-0.94c8.41-0.26,16.83,0.39,25.23-0.36c0.3,0.45,0.59,0.9,0.89,1.34
				c-9.9,0.04-19.79,0.08-29.69,0.12c-0.17,0.09-0.35,0.18-0.52,0.26C361.73,130.01,361.86,129.87,362,129.73z"/>
			<path class="st112" d="M238.56,77.06c-1.72-0.35-1.01-1.72-1.05-2.68c-0.15-3.54-0.19-7.09-0.28-10.64
				c0.24-0.31,0.48-0.63,0.73-0.94C239.66,67.49,238.46,72.31,238.56,77.06z"/>
			<path class="st113" d="M349.75,101.25c0.25-1.82,1.66-1.48,2.84-1.5c3.32-0.04,6.64-0.05,9.96-0.07
				c0.27,0.24,0.54,0.49,0.81,0.73c-0.22,1.43-1.27,1.65-2.43,1.55c-2.73-0.25-5.55,0.7-8.21-0.59c2.09-1.17,4.31-0.03,5.65-0.41
				c1.3,0.01,0.77-0.67,0.89-0.19c-2.39,0.47-4.91-0.53-7.25,0.61c-0.51,0.21-1.03,0.42-1.54,0.63
				C349.83,102.16,349.55,101.93,349.75,101.25z"/>
			<path class="st114" d="M198.99,101.97c3.23,3.03,5.95,6.61,9.76,9.03c-1.28,1.01-2.29,0.4-3.22-0.57
				c-2.47-2.57-4.93-5.14-7.4-7.71C198.42,102.47,198.71,102.22,198.99,101.97z"/>
			<path class="st115" d="M325.86,63c-3.76-1.73-6.4-4.6-8.32-8.2C320.78,57.05,323.52,59.83,325.86,63z"/>
			<path class="st116" d="M319.02,234.08c-0.64-0.25-2.62,0.63-1.37-1.24c0.67-1,1.58-2.2,3.02-2.5c1.09,1.03-0.18,1.8-0.23,2.68
				C319.96,233.37,319.49,233.72,319.02,234.08z"/>
			<path class="st117" d="M196.7,110.29c-0.26,0.26-0.51,0.51-0.77,0.77c-1.13-1.08-2.79-1.76-2.77-3.7
				c0.2-0.05,0.38-0.14,0.55-0.25C194.94,107.96,196.06,108.9,196.7,110.29z"/>
			<path class="st118" d="M267.78,255.04c0.99-1.5,2.11-1.13,2.89,0.06c0.66,1.01,0.84,2.22-1.1,2.05
				C268.97,256.44,268.37,255.74,267.78,255.04z"/>
			<path class="st119" d="M349.75,101.25c0.24,0.26,0.49,0.51,0.73,0.77c1.2,3.28,3.53,5.92,5.11,8.98
				c0.14,0.19,0.22,0.41,0.22,0.65c0.46,3.45,2.31,6.32,3.87,9.32c-0.01,0.35-0.02,0.7-0.03,1.04c1.43,2.38,0.33,5.52,2.34,7.72
				c0,0,0.11,0.16,0.11,0.16c-0.66,1.85,0.04,3.62,0.24,5.45c0.98,8.95,0.79,17.86-1.36,26.66c1.48,3.1,0.21,5.68-1.53,8.18
				c0,0-0.04,0.05-0.04,0.05c-2.44,5.32-4.88,10.65-7.32,15.97c0.02,0.82-0.03,1.61-0.89,2.04c-4.2,4.83-8.47,9.61-11.94,15.03
				c0.47,1.37-1.07,0.83-1.38,1.45c-4.41,2.52-8.29,5.75-12.13,9.04c-0.16,0.82-0.73,1.33-1.39,1.75
				c-7.38,4.18-14.94,7.9-23.39,9.41c-1.68-0.07-3.33,0.93-5.04,0.17c-4.93,0.47-9.85,1.29-14.78,1.29c-3.43,0-6.88-1.02-10.38-0.49
				c-1.36,0.85-2.4,0.29-3.33-0.75c-2.22-1.1-4.62-1.38-7.03-1.58c-0.92,0.7-1.85,0.37-2.79,0.06c-1.74-0.69-3.55-1.21-5.19-2.13
				c-1.32-0.74-2.74-1.52-1.68-3.46c0.55-0.35,1.15-0.44,1.78-0.36c8.93,3.21,18.09,5.2,27.61,5.53c10.21,0.36,20-1.56,29.51-5.13
				c4.77-1.08,8.71-3.83,12.76-6.37c14.02-8.46,24.34-20.11,30.57-35.31c3.74-8.01,5.51-16.49,6.18-25.25
				c0.33-8.95-0.3-17.79-2.86-26.41c-0.65-4.37-2.86-8.18-4.4-12.23c-2.62-6.03-6.73-11.05-10.83-16.09
				c-3.07-3.93-6.52-7.48-10.57-10.43c-5.95-4.48-12.1-8.62-19.14-11.23c-11.64-4.78-23.6-7.02-36.27-5.62
				c-5.46,0.61-10.76,1.6-16,3.09c-4.11,0.78-7.61,3.1-11.45,4.55c-9.42,4.57-17.52,10.83-24.2,18.9
				c-4.87,5.88-9.14,12.14-11.89,19.32c-1.8,3.39-2.76,7.11-4.02,10.71c-0.83,1.87-0.38,4.35-2.65,5.52
				c-2.54-1.29-1.25-3.45-0.94-5.14c0.95-5.2,3.09-10.04,5.01-14.94c1.41-3.4,4.37-5.99,5.11-9.74c-0.14-0.51,0.41-0.57,0.58-0.87
				c4.73-5.08,8.63-10.89,13.79-15.59c3.48-2.54,6.95-5.08,10.43-7.61c3.19-1.51,6.41-2.96,8.95-5.5c0.38-0.36,0.65-0.99,1.36-0.62
				c3.59-1.01,7.3-1.72,10.51-3.79l-0.01,0.01c2.97,0.91,5.51-0.92,8.2-1.5c10.03-2.16,20.09-1.53,29.93,0.14
				c6.97,1.18,13.84,3.64,20.3,6.95c4.21,2.16,7.72,5.38,12,7.36c3.98,3.25,8.25,6.2,11.39,10.37
				C344.91,93.73,346.46,98.18,349.75,101.25z"/>
			<path class="st120" d="M252.13,218.33c-0.45,0.02-0.89,0.05-1.34,0.07c-0.6,0.74-1.24,1.35-2.3,0.83
				c-0.8-1.59-1.94-2.67-3.68-3.4c-3.21-1.35-6.09-3.32-8.92-5.36c-0.97-0.7-1.85-1.8-3.3-1.03c-0.74-0.24-1.55-0.71-1.37-1.48
				c0.77-3.26-1.5-3.98-3.76-4.77c-3.59-2.69-6.18-6.3-8.99-9.72c-0.24-0.76-0.47-1.51-0.71-2.27c-0.67-0.75-0.33-1.28,0.39-1.73
				c0.92-0.2,1.8,0.01,2.66,0.32c0.33,0.15,0.61,0.37,0.85,0.64c1.21,4.91,5.2,7.8,8.57,10.87c4.82,4.39,9.94,8.56,15.92,11.43
				c2.6,1.64,5.7,2.52,7.76,5C253.59,218.76,252.92,218.72,252.13,218.33z"/>
			<path class="st121" d="M302.51,248.29c-2.54-1.52-5.32-1.59-8.19-1.58c-11.74,0.05-23.48-0.04-35.22-0.07
				c-0.01-1.91,1.47-1.35,2.44-1.36c12.36-0.04,24.71-0.02,37.07-0.04C300.75,245.25,302.25,245.95,302.51,248.29z"/>
			<path class="st122" d="M281.45,234.79c10.08,0.07,20.15,0.12,30.23,0.24c1.05,0.01,2.66-0.83,2.88,1.26c0,0-0.03,0.02-0.03,0.02
				c-10.04-0.01-20.07-0.03-30.11-0.03c-1.22,0-2.49-0.23-3.64,0.45C280.29,235.83,280.03,235.02,281.45,234.79z"/>
			<path class="st123" d="M232.6,209.44c-0.21-1.24-0.78-3.12,1.52-1.49c4.34,3.08,8.65,6.16,13.64,8.13
				c1.54,0.61,0.85,1.79,0.72,2.83c-3.45,1.4-5.13-2.02-7.76-2.84c-1.47-0.93-2.6-2.36-4.31-2.95
				C235.13,211.89,233.86,210.67,232.6,209.44z"/>
			<path class="st124" d="M236.4,213.12c1.95-0.21,3.36,0.78,4.65,2.05c2.21,2.67,4.85,4.95,7.56,7c2.86,2.17,6.44,0.8,9.72,0.64
				c0.69,0.25,1.39,0.49,2.08,0.74c0.35,1.26,0.48,2.47-0.86,3.27c-1.25,0.75-2.05-0.05-2.91-0.8c-1.6-1.4-3.59-0.83-5.35-0.67
				c-2.22,0.2-3.75-0.48-5.19-2.09C243,219.76,239.1,217.02,236.4,213.12z"/>
			<path class="st23" d="M295.93,225.09c1.69-0.3,3.38-0.6,5.07-0.89c6.69-1.27,13.45-1.58,20.24-1.27
				c1.73,0.08,3.81-0.29,4.56,2.09c-0.25,0.29-0.5,0.58-0.75,0.87c-8.16-0.04-16.32-0.04-24.47-0.13
				C299.02,225.73,297.34,226.25,295.93,225.09z"/>
			<path class="st125" d="M249.28,236.23c2.34-1.6,4.97-0.47,7.45-0.77c3.24-0.39,6.59,0.7,9.78-0.62c1.05-0.78,1.94-2.11,3.53-1.17
				c0.84,0.49,1.12,1.34,0.88,2.25c-0.29,1.12-1.28,1.83-2.22,1.47C262.33,234.95,255.73,236.92,249.28,236.23z"/>
			<path class="st126" d="M218.49,193.48c4.08,2.23,6.53,5.98,8.99,9.72c-1.28,1.47-1.94,0.03-2.63-0.65
				c-2.19-2.17-4.3-4.42-6.44-6.64c-0.72-0.83-0.5-1.65,0.03-2.47L218.49,193.48z"/>
			<path class="st127" d="M218.43,193.43c-0.01,0.82-0.02,1.65-0.03,2.47c-0.89,0.49-0.5,1.32-0.54,2.03
				c-0.59,1.97,0.62,4.2-0.85,6.05c-0.78-3.08,1.25-6.68-1.74-9.39c-0.45-0.41-0.29-1.25,0.21-1.68
				C216.62,191.95,217.3,194.01,218.43,193.43z"/>
			<path class="st128" d="M281.45,234.79c-0.67,0.49-0.69,1.2-0.67,1.93c-1.22,1.54-2.44,0.93-3.36-0.22
				c-0.68-0.85-0.46-2,0.43-2.65C279.35,232.75,280.62,233.08,281.45,234.79z"/>
			<path class="st129" d="M267.44,225.14c1.11,0.25,2.22,0.5,3.33,0.75c-0.4,1.09-1.18,1.55-2.29,1.21
				C267.53,226.82,267.11,226.15,267.44,225.14z"/>
			<path class="st130" d="M325.79,225.01c-0.98-1.11-2.31-0.73-3.51-0.74c-7.1-0.05-14.19-0.05-21.29-0.07
				c8.29-2.09,15.85-5.97,23.52-9.57c3.65,0.09,7.35-0.84,10.94,0.55C333.37,219.57,329.29,222,325.79,225.01z"/>
			<path class="st131" d="M335.46,215.18c-3.65-0.13-7.35,0.76-10.94-0.55c0.41-0.29,0.82-0.58,1.24-0.87
				c3.38,0.75,6.86-0.37,10.22,0.62C335.81,214.64,335.63,214.91,335.46,215.18z"/>
			<path class="st95" d="M359.46,170.18c0.51-2.73,1.02-5.45,1.53-8.18c0.23-0.01,0.46-0.01,0.69-0.02
				c2.71,3.39,5.86,6.36,9.05,9.26c2.41,2.2,2.85,4.41,1.48,7.19c-2.75,2.76-5.51,5.52-8.26,8.28c-1.37-3.47-0.56-7.08-0.56-10.61
				C363.38,173.06,362.22,171.19,359.46,170.18z"/>
			<path class="st132" d="M380.51,169.52c0.02,0.63-0.14,1.17-0.8,1.43c-0.59-0.79-1.02-1.8-1.78-2.33
				c-4.91-3.43-6.23-8.06-5.82-13.89c0.27-3.78,1.34-7.9-1.32-11.51c-0.45-0.62-0.2-1.73,0.63-2.34c0.65-0.48,1.38-0.6,2.1-0.22
				c1.01,0.53,1.45,1.47,1.1,2.51c-1.89,5.6-0.45,11.35-0.92,17.01c-0.12,1.5,0.52,2.55,1.48,3.64
				C376.91,165.78,379.21,167.19,380.51,169.52z"/>
			<path class="st133" d="M385.84,164.94c-2.87-0.97-3.17-2.53-3.15-4.42c0.07-4.5,0.03-8.99,0.02-13.49c0-1.21,0.25-2.44-0.9-3.45
				c-0.93-0.82-1.1-1.99-0.15-2.98c0.69-0.71,1.63-0.69,2.43-0.23c1.22,0.71,0.97,1.8,0.66,2.96c-1.64,6.1-0.49,12.32-0.59,18.48
				C384.16,162.63,385.03,163.47,385.84,164.94z"/>
			<path class="st134" d="M372.2,178.43c0.67-3.36-0.7-5.73-3.12-8.1c-2.64-2.59-6.14-4.52-7.41-8.36
				c4.94,4.15,10.25,7.97,12.82,14.25C373.73,176.97,372.96,177.7,372.2,178.43z"/>
			<path class="st135" d="M351.2,188.24c0.3-0.68,0.6-1.36,0.89-2.04c1.52,2.3-0.02,5.33,1.83,7.63c0.34,0.42-0.27,1.66-1.28,1.94
				c-0.89,0.25-1.7,0.17-2.33-0.6c-0.63-0.77-0.75-1.64-0.09-2.35C351.49,191.46,352.37,190.09,351.2,188.24z"/>
			<path class="st136" d="M337.89,204.72c0.46-0.48,0.92-0.97,1.38-1.45c0.55-0.25,1.13-0.45,1.66-0.75
				c1.16-0.67,2.18-0.49,2.96,0.56c0.56,0.76,0.64,1.65,0.02,2.43c-0.84,1.04-2.05,1.18-3,0.44
				C339.96,205.2,339.04,204.76,337.89,204.72z"/>
			<path class="st137" d="M268.85,50.32c-1.1,1.16-2.07,2.5-3.34,3.45c-4.61,3.45-6.87,7.83-5.85,13.66c0,0,0.01-0.01,0.01-0.01
				c-2.08-1.72-2.3-7.52-0.19-9.68c3.01-3.09,6.17-6.02,9.27-9.02C270.74,49.12,269,49.77,268.85,50.32z"/>
			<path class="st138" d="M268.85,50.32c-0.03-0.53,0.74-1.12-0.1-1.6c2.78-1.51,5.76-0.51,8.64-0.67
				c3.56-0.19,7.14-0.09,10.71-0.11c0.65,0.61,0.23,1.15-0.12,1.69C281.59,49.82,275.17,48.64,268.85,50.32z"/>
			<path class="st139" d="M249.16,71.2c-0.45,0.21-0.91,0.41-1.36,0.62c-0.02-6.19-0.03-12.38-0.05-18.57
				c2.31-1.04,1.45,0.97,1.45,1.69C249.26,60.36,249.19,65.78,249.16,71.2z"/>
			<path class="st140" d="M310.85,47.95c-0.54,1.49-1.84,0.94-2.87,1.03c-2.4,0.22-4.95-0.59-6.99,1.6c-0.72,0.77-1.9,0.3-2.59-0.62
				c-0.59-0.78-0.6-1.61-0.04-2.42c0.56-0.8,1.49-1.3,2.25-0.81c3.24,2.09,6.8,0.7,10.18,1.17
				C310.8,47.91,310.85,47.95,310.85,47.95z"/>
			<path class="st141" d="M287.97,49.63c0.04-0.56,0.08-1.13,0.12-1.69c0.97-0.99,2-2.03,3.41-0.79c0.94,0.83,1.07,2.01,0.24,2.95
				C290.35,51.66,289.13,50.58,287.97,49.63z"/>
			<path class="st142" d="M342.1,79.62c-3.85,1.43-7.81,0.44-11.72,0.53C334.22,78.58,338.18,79.58,342.1,79.62z"/>
			<path class="st143" d="M185.36,161.18c1.71-1.29,0.67-3.14,0.94-4.72c0.23-1.39-0.48-2.92,0.65-4.17
				c0.64,3.28-0.95,6.87,1.49,9.95c0.51,0.64,0.14,1.71-0.72,2.22c-0.78,0.47-1.7,0.64-2.39-0.06
				C184.31,163.38,184.32,162.24,185.36,161.18z"/>
			<path class="st144" d="M218.49,189.76c-0.65,0.28-0.64,0.88-0.71,1.45c-1.8-1.39-2.36-3.63-3.64-5.38
				c-3.91-5.36-6.99-11.08-7.59-17.86c-0.94-2.14-0.11-4.87-2.21-6.63c-0.85-2.37,0.68-1.96,2.04-1.76c1.25,0.88,1.44,2.33,1.7,3.62
				c1.65,8.3,5.49,15.64,9.69,22.85C218.41,187.16,219.6,188.27,218.49,189.76z"/>
			<path class="st145" d="M206.55,167.98c2.28,6.06,4.72,12.05,7.59,17.86c-2.23,1.28-2.15-0.99-2.7-1.92
				c-1.47-2.49-2.72-5.12-4.06-7.69c-0.26-0.02-0.38-0.1-0.36-0.25c0.02-0.18,0.06-0.26,0.13-0.26c-0.55-1.99-1.06-3.99-1.67-5.96
				C205.14,168.66,205.45,168.11,206.55,167.98z"/>
			<path class="st146" d="M204.86,131.22c0.58-1.95,1.15-3.9,1.73-5.86c0.88-0.17,1.14,0.47,1.42,1.09c0.46,3-0.75,5.8-1.19,8.68
				c-0.63,4.15-0.75,8.31-0.7,12.48c0.01,1-0.09,1.97-0.66,2.83c-1.92,0.96-1.97-0.64-2.14-1.72c-0.24-1.45-0.21-2.94-1.03-4.25
				c-0.23-1.17-0.58-2.32-0.21-3.53c2.26-0.26,2.18-2.05,2.17-3.58C204.21,135.28,204.37,133.24,204.86,131.22z"/>
			<path class="st147" d="M202.06,140.94c0.27,0.99,0.55,1.99,0.82,2.98c1.75,2.37,1.09,5.27,1.26,7.84
				c0.21,3.05,0.61,6.27-0.3,9.36c-0.15,0.53-0.36,0.86-0.96,0.82c-1.46-6.93-1.96-13.94-1.56-21c0.01-0.1,0.18-0.28,0.23-0.26
				C201.75,140.73,201.9,140.85,202.06,140.94z"/>
			<path class="st148" d="M202.9,161.94c0.4-6.01,1.11-12.01-0.01-18.02c2.57,1.72,0.44,4.85,2.04,6.86
				c1.87,2.78,1.72,5.78,0.93,8.84c-0.35,0.71-2.09,0.2-1.51,1.72c-0.14,0.64,0.05,1.57-0.72,1.76
				C202.83,163.3,202.85,162.53,202.9,161.94z"/>
			<path class="st149" d="M207.14,175.71c-0.01,0.21,0.06,0.38,0.23,0.51c-0.04,4.61-0.02,9.23-0.15,13.84
				c-0.03,1.14,0.66,2.53-0.71,3.42c-0.06-5.42-0.12-10.84-0.17-16.26C206.33,176.58,206.49,176.01,207.14,175.71z"/>
			<path class="st150" d="M216.22,84.71c0.65-0.33,1.49-0.91,1.53,0.43c0.04,1.52,0.2,2.85,1.27,4.12c0.63,0.75,0.35,1.96-0.62,2.63
				c-0.77,0.54-1.69,0.62-2.45,0.03c-0.85-0.66-1.38-1.7-0.68-2.61c1.1-1.43,1.18-2.95,0.95-4.59
				C216.21,84.73,216.22,84.71,216.22,84.71z"/>
			<path class="st151" d="M214.62,100.53c-0.19,0.29-0.39,0.58-0.58,0.87c-3.47-0.39-7.49,1.3-10.03-2.62
				c-0.25-0.39-0.36-0.86-0.54-1.3C206.72,100.23,210.6,100.62,214.62,100.53z"/>
			<path class="st152" d="M227.47,73.39c1.67,3.68,0.39,7.56,0.76,11.33C226.32,81.06,227.68,77.17,227.47,73.39z"/>
			<path class="st153" d="M352.02,101.39c-1.4-0.66-0.73-0.89,0.22-0.9c3.19-0.03,6.38-0.01,9.58-0.01c0,0.3,0.01,0.6,0.01,0.9
				c-3.04,0-6.07,0-9.11,0c0,0-0.35-0.07-0.35-0.07L352.02,101.39z"/>
			<path class="st154" d="M342.33,90.72c0.48-2.32,2.18-0.77,3.27-0.94c2.32-0.34,4.67-0.21,6.97,0.36
				C349.22,91.4,345.74,90.52,342.33,90.72z"/>
			<path class="st155" d="M312.32,74.19c7.04,2.44,13.15,6.44,18.76,11.27c1.45,1.34,3.54,2.55,1.04,4.75
				c-2.58-0.47-4.23-2.49-6.19-3.91c-6.57-4.77-13.58-8.64-21.34-11.11c-1.16-0.37-2.42-0.65-3.16-1.8
				c-0.16-2.21,0.89-2.64,2.74-1.83C306.8,72.69,309.61,73.3,312.32,74.19z"/>
			<path class="st156" d="M252.13,218.33c0.53-0.24,1.06-0.48,1.59-0.71c1.49-0.97,2.9-0.19,4.29,0.26
				c15.79,5.05,31.6,5.24,47.45,0.27c1.29-0.41,2.6-0.93,4.02-0.62c0.64,0.22,1.25,0.46,1.19,1.31c-13.65,5.5-27.71,6.68-42.2,4.29
				C262.8,222.19,257.39,220.58,252.13,218.33z"/>
			<path class="st157" d="M210.99,114.75c1.65-6.7,5.73-12.01,9.77-17.37c7.02-9.32,15.93-16.31,26.3-21.52
				c0.5,0.23,0.97,0.49,0.93,1.16c-0.4,1.53-1.73,2.03-2.93,2.69c-13.54,7.41-23.46,18.34-30.9,31.7c-0.71,1.28-1.1,2.83-2.66,3.47
				C211.34,114.84,211.17,114.79,210.99,114.75z"/>
			<path class="st158" d="M312.32,74.19c-2.71-0.15-5.36-0.46-7.77-1.94c-1.29-0.79-2.68-1.24-2.74,1.16
				c-2.2-0.49-3.96-2.26-6.36-2.2c-8.7-1.64-17.4-1.68-26.09-0.02c-0.39,0.15-0.78,0.24-1.19,0.3c-3.04-0.27-5.8,1.54-8.86,1.19
				c-0.59-0.24-1.09-0.54-0.98-1.3C276.67,65.64,294.69,66.1,312.32,74.19z"/>
			<path class="st159" d="M353.65,177.21c-4.57,12.29-12.78,21.83-22.77,29.98c-2.5,2.04-4.98,4.17-8.04,5.41
				c-0.29-0.24-0.47-0.55-0.53-0.93c1.43-3.32,4.84-4.49,7.38-6.53c8.82-7.05,15.54-15.68,20.55-25.72
				c0.66-1.33,1.17-2.78,2.72-3.39C353.62,176.18,353.96,176.51,353.65,177.21z"/>
			<path class="st160" d="M258.33,222.82c-4.26,2.52-8.92,2.11-12.25-1.47c-1.79-1.93-4.68-3.05-5.03-6.17
				c2.56,1.07,4.43,3.53,7.42,3.74c0.93,0.56,1.48-0.63,2.32-0.51C252.25,221.66,255.91,221.18,258.33,222.82z"/>
			<path class="st161" d="M353.65,177.21c-0.24-0.3-0.47-0.61-0.71-0.91c-1.13-1.52-0.07-2.93,0.42-4.21
				c3.18-8.34,4.7-16.92,4.33-25.85c-0.07-1.57-0.34-3.27,0.99-4.58c1.66,0,1.1,1.28,1.17,2.12c0.19,2.55-0.28,5.12,0.28,7.65
				C359.52,160.41,357.82,169.12,353.65,177.21z"/>
			<path class="st162" d="M360.13,151.43c-1.54-3.1,0.38-6.63-1.22-9.72c-1.66-1.08-1.19-2.9-1.4-4.4
				c-0.57-4.13-1.82-8.17-1.77-12.39c0.27-0.62,0.56-1.21,1.4-1.1C360.15,132.8,360.67,142.05,360.13,151.43z"/>
			<path class="st163" d="M341.48,96.03c4.82,4.49,8.41,9.85,11.2,15.79c-0.25,0.6-0.05,1.5-1.04,1.64
				c-1.09-0.25-1.58-1.14-2.02-2.02c-2.24-4.55-4.83-8.88-7.95-12.88c-0.46-0.59-0.72-1.3-0.51-2.08
				C341.27,96.32,341.37,96.17,341.48,96.03z"/>
			<path class="st76" d="M331.87,89.77c1.33-1.73-0.35-2.91-0.8-4.32c4.43,2.57,7.82,6.17,10.4,10.57c0,0,0.04-0.04,0.04-0.04
				c-2.01,0.57-2.74-1.22-3.93-2.15c-1.12-0.88-1.87-2.44-3.71-1.93C332.52,91.85,331.3,91.65,331.87,89.77z"/>
			<path class="st164" d="M322.77,211.6c0.02,0.33,0.04,0.67,0.06,1c-3.78,2.62-7.75,4.84-12.16,6.23
				c-0.31-0.25-0.62-0.51-0.94-0.76c0.07-0.51,0.23-1.04,0.68-1.27C314.42,214.79,318.11,212.03,322.77,211.6z"/>
			<path class="st165" d="M351.91,113.33c0.11-0.58,0.09-1.22,0.77-1.52c1.56,3.97,3.81,7.69,4.46,12
				c-0.24,0.27-0.49,0.54-0.73,0.81c-1.27-0.02-1.7-1.03-1.91-1.94C353.78,119.52,351.45,116.81,351.91,113.33z"/>
			<path class="st166" d="M258.33,71.38c0.28,0.27,0.57,0.54,0.85,0.8c-2.99,3.38-7.05,4.09-11.22,4.56
				c-0.3-0.29-0.59-0.59-0.89-0.88C250.75,74.18,254.36,72.34,258.33,71.38z"/>
			<path class="st167" d="M207.38,126.04c-0.26-0.23-0.53-0.46-0.79-0.68c1.47-3.54,1.68-7.6,4.41-10.61c0,0,0.01,0,0.01,0
				C211.73,119.14,210.2,122.8,207.38,126.04z"/>
			<path class="st35" d="M351.91,113.33c1.5,3.76,3,7.52,4.5,11.29c0.93,5.68,2.13,11.33,2.49,17.09
				c0.49,11.96-1.19,23.54-5.96,34.59c-6.59,14.73-16.75,26.41-30.17,35.31c-4.34,2.16-8.69,4.32-13.03,6.47
				c-9.02,2.79-18.11,4.92-27.68,4.89c-9.83-0.04-19.17-2.11-28.35-5.35c-3.12-0.52-5.32-3-8.27-3.87
				c-0.55-0.91-0.21-1.53,0.64-1.99c1.27-0.43,2.51-0.12,3.63,0.41c8.43,4,17.46,5.77,26.6,7.11c3.72,0.29,7.43,0.1,11.14,0.08
				c10.61-1.24,20.84-3.8,30.28-8.95c14.48-7.9,25.21-19.43,32.04-34.38c3.64-7.97,5.57-16.52,6.34-25.28
				c0.05-4.19,0.04-8.37,0-12.55c-0.46-2.83-0.98-5.64-1.66-8.43c-0.14-0.34-0.25-0.69-0.34-1.05c-1.13-6.17-3.39-11.95-6.22-17.52
				c-0.2-0.29-0.36-0.6-0.52-0.91c-2.63-6.14-7.32-10.84-11.19-16.12c-0.8-1.09-1.85-2.02-2.12-3.43c2.13-0.8,2.68,1.31,3.88,2.17
				c1.27,0.92,2.39,2.05,3.57,3.08C345.17,101.66,348.8,107.34,351.91,113.33z"/>
			<path class="st168" d="M207.38,126.04c1.21-3.76,2.42-7.53,3.62-11.29c5.32-9.1,10.83-18.02,18.74-25.25
				c5.55-5.06,11.84-8.93,18.21-12.76c3.74-1.52,7.48-3.04,11.22-4.56c2.95-0.43,5.7-1.91,8.78-1.59c0,2.67-2.27,2.7-3.92,3.14
				c-6.79,1.81-13.22,4.41-19.26,8.01c-15.48,9.22-26.52,22.07-32.28,39.24c-6.99,20.84-5.4,41,5.07,60.39
				c1.12,2.07,1.75,4.43,3.5,6.14c0.59,1.07,1.34,2.17-0.44,2.87c-0.75-0.1-1.65,0.34-2.14-0.63c-0.8-3.06-3.04-5.3-4.53-7.97
				c-3.9-6.97-5.91-14.59-8.1-22.17c-1.54-2.82-0.38-5.92-0.93-8.84C204.67,142.43,205.64,134.2,207.38,126.04z"/>
			<path class="st169" d="M246.12,212.19c-0.79,0.27-0.6,0.97-0.67,1.56c-8.56-5.05-16.28-11.12-22.65-18.78
				c-0.9-1.09-3.58-2.17-1.25-4.38c0.22-0.3,0.51-0.46,0.88-0.49c1.4,0.19,2.01,1.37,2.86,2.26c4.99,5.25,9.98,10.51,16,14.63
				c0.85,0.61,1.79,1.09,2.71,1.59C245.01,209.6,247.31,209.88,246.12,212.19z"/>
			<path class="st170" d="M222.29,190.37c-0.25,0.07-0.49,0.14-0.74,0.21c-0.31-0.07-0.62-0.13-0.93-0.2
				c0.57-0.7,0.64-1.41,0.02-2.13c-0.67-1.35-1.14-2.76-1.17-4.29c-0.07-3.73,0.1-7.46-0.88-11.14c-0.51-1.94,0.4-3.61,2.56-3.75
				c2.12-0.13,3.44,1.37,3.06,3.33c-0.94,4.96-0.47,9.95-0.76,14.91C223.4,188.45,223.24,189.57,222.29,190.37z"/>
			<path class="st1" d="M222.29,190.37c-0.01-4.24,0.01-8.49-0.03-12.73c-0.01-1.75,0.01-3.43,1-5.03c0.58-0.93,0.14-1.94-0.86-2.54
				c-0.84-0.51-1.64-0.43-2.43,0.17c-0.82,0.63-1.06,1.56-0.63,2.34c2.8,5.05,0.98,10.45,1.29,15.68c-3.8-4.08-5.99-9.16-7.93-14.18
				c-9.93-25.79-6.95-50.4,8.73-72.96c7.17-10.31,16.86-18.32,28.73-23.5c4.81-2.1,9.64-3.85,14.66-5.25
				c1.13-0.32,2.53-0.42,3.12-1.79c0.25-0.06,0.49-0.12,0.74-0.18c2.32,0.99,4.49-0.61,6.77-0.37c4.44,0.11,8.88,0.37,13.31-0.16
				c2.57,0.27,5.1,0.98,7.72,0.62c2.48-0.33,3.8,1.46,5.31,2.91c11.35,3.01,21.33,8.54,30.06,16.37c0.4,1.08,0.76,2.27,2.2,0.95
				c5.51,5.96,11.3,11.73,14.05,19.66c-3.45,1.34-7,0.33-10.49,0.74c3.47-0.78,7.04,0.66,10.48-0.76
				c3.95,5.61,6.11,11.88,6.85,18.67c-3.79,0.66-7.59,0.35-11.39,0.14c3.8,0.01,7.6,0.62,11.39-0.15c1.67,2.55,1.58,5.56,2.19,8.39
				c-0.44,4.67-0.5,9.33,0.05,13.99c-1.13,12.01-4.48,23.37-10.88,33.62c-5.82,9.33-13.41,17-22.68,23.12
				c-10.84,7.15-22.79,10.65-35.46,12.3c-4.19-0.54-8.38-0.51-12.57-0.02c-5.95-1.09-11.97-1.9-17.71-3.88
				c-3.96-1.36-7.85-2.9-11.77-4.37c0.25-2.14-2.07-1.83-2.84-2.99c-0.23-0.3-0.6-0.65-0.53-0.96c1.16-5.82-2.99-8.88-6.57-11.94
				c-3.37-2.88-4.55-6.13-4.24-10.45c0.32-4.63,0.14-9.31-0.23-13.95c0.65,5.57,0.31,11.15,0.24,16.73
				c-0.03,2.47,0.7,4.26,2.51,5.87c2.32,2.07,4.42,4.39,6.67,6.55c2.07,1.98,1.95,4.94-0.14,6.75
				C233.65,203.17,227.7,197.06,222.29,190.37z"/>
			<path class="st168" d="M296.5,70.5c-2.52,1.5-5.07,0.46-7.61,0.07c-4.68,0.48-9.36,0.49-14.04,0c-2.05-0.12-4.19,3.1-6.15-0.16
				C277.98,68.25,287.24,68.36,296.5,70.5z"/>
			<path class="st171" d="M357.2,151.41c-1.15-4.66-1.13-9.33-0.05-14C357.17,142.08,357.18,146.75,357.2,151.41z"/>
			<path class="st172" d="M275.61,220.43c4.19-1.1,8.38-1.15,12.57,0.02C283.98,220.44,279.8,220.44,275.61,220.43z"/>
			<path class="st173" d="M240.98,207.8c1.42-2.55,1.47-5.05-1.04-6.85c-7.38-5.3-10.23-12.28-8.82-21.28
				c0.38-2.42,0.82-5.17-1.28-7.43c-0.64-0.69-0.38-2,0.64-2.6c0.78-0.46,1.72-0.48,2.48,0.11c0.9,0.7,0.94,1.58,0.59,2.67
				c-1.93,6.06-0.41,12.28-0.77,18.42c-0.06,0.97,0.74,1.54,1.35,2.16c1.4,1.43,2.66,3.06,4.25,4.22c4.16,3.02,5.72,6.97,4.91,11.97
				C242.51,208.73,241.75,208.26,240.98,207.8z"/>
			<path class="st174" d="M277.67,90.01c1.39-2.72,1.4-5.97,3.38-8.92c2.41,4.16,2.66,8.81,4.77,12.72
				c3.65,6.82,5.82,14.16,6.87,21.74c0.95,6.89,0.99,13.88-0.11,20.8c-0.76,1.78-2.28,3.42-1.02,5.58c-1.78,4-0.73,8.1-0.41,12.17
				c1.1,2.08,0.74,3.76-1.23,5.16c-4.18,2.98-5.41,7.36-5.24,12.17c0.23,6.36,0.74,12.7,1.07,19.06c0.08,1.64,0.7,3.64-2.24,3.66
				c-2.39,0.02-3.33-0.93-3.43-3.29c-0.37-8.23-0.92-16.44-1.32-24.67c-0.14-2.86-1.11-5.1-3.85-6.3c-3.17-1.39-3.54-3.52-1.73-6.27
				c1.14-4.37,0.28-8.85,0.76-13.26c0.04-0.38,0.06-0.78-0.12-1.1c-4.84-8.44-2.06-17.58-2.2-26.4c-0.1-6.5,2.33-12.72,3.83-19.03
				C275.82,92.35,276.53,91.05,277.67,90.01z"/>
			<path class="st175" d="M325.85,105.79c1.68-0.2,3.37-0.4,5.97-0.71c-14.79,11.66-25.88,25.76-38.05,38.82
				c-0.94-0.46-1.16-1.39-1-2.22c0.87-4.69-0.04-9.48,0.97-14.17c0.46-2.16,1.17-3.95,2.73-5.57c5.77-6.01,12.26-10.91,19.94-14.29
				C319.48,106.28,322.77,106.74,325.85,105.79z"/>
			<path class="st175" d="M270.17,142.01c-0.21,2.36-0.98,1.69-2.06,0.45c-4.86-5.54-9.76-11.03-14.64-16.54
				c-6.46-7.28-13.53-13.94-21.91-20.75c6.33,0.51,11.35,1.8,16.2,3.85c3.53-0.43,5.38,2.81,8.28,3.78
				c4.35,2.91,8.02,6.61,11.77,10.21c1.53,1.46,1.67,3.47,2.09,5.43C270.86,132.96,269.83,137.49,270.17,142.01z"/>
			<path class="st176" d="M325.85,105.79c-11.38,2.58-20.69,8.61-28.69,16.95c-1.37,1.43-2.19,2.79-2.28,4.83
				c-0.24,5.45-0.73,10.88-1.11,16.32c-1.56-0.54-2.6-0.53-2.52,1.67c0.11,2.84-0.05,5.69-0.09,8.54c-0.33-2.32-2.11-4.27-0.8-7.1
				c0.59-1.27-1.34-3.61,0.72-5.19c0.35-1.51,1.27-2.98,0.25-4.56c1.9-10.72,1.13-21.25-2.18-31.63c-1.24-3.89-2.22-7.87-3.32-11.81
				c0.54,0.6,1.09,1.2,1.64,1.81c2.27-1.58-1.18-5.34,2.48-6.32c0.28,4.54,0.15,9.16,2.43,13.97c2.24-4,5.34-7.18,4.39-12.02
				c-0.14-0.73-0.15-1.51,0.63-1.99c0.23,0.08,0.64,0.14,0.66,0.25c0.47,3.57,3.01,3.09,5.45,2.82c0.58,1.23-0.14,2.16-0.74,3.09
				c-1.15,1.77-2.11,3.7-3.55,5.25c-5.09,5.51-6.06,11.73-3.19,19.22c4.34-4.95,10.27-8.45,9.88-16.14
				c-0.17-3.35,0.12-6.71-0.34-10.06c-0.16-1.13-0.56-2.6,1.3-2.95c0.84,0.34,1.33,1.85,2.64,0.57c0.86-0.83,1.93-0.84,2.69,0.35
				c-0.52,2-3.62,3.06-2.15,5.85c2.01-0.15,2.14-2.4,3.63-3.04c1.58,0.61,3.18,0.44,4.78,0.1c-0.01,2.45-2.08,3.31-3.64,4.33
				c-3.39,2.22-4.35,5.15-3.43,9.12c4.54-1.65,7.3-4.48,7.9-9.37c0.18-1.47-0.59-3.69,1.93-4.21c0.01,2.58,0.49,5.27-0.07,7.72
				c-0.84,3.67,0.91,3.9,3.61,3.59C325.1,105.72,325.48,105.77,325.85,105.79z"/>
			<path class="st177" d="M241.15,129.88c1.67-1.71,3.18-1.64,5.11-0.11c8.22,6.47,14.97,14.17,20.25,23.21
				c1.15,1.97,0.64,2.94-1.23,3.67c-2.78,1.08-5.31,4.51-8.58,0.9c-3.16-1.49-4.07-4.84-6.03-7.32c-3.69-4.66-6.82-9.71-9.78-14.86
				C239.87,133.59,238.52,131.58,241.15,129.88z"/>
			<path class="st178" d="M270.17,142.01c-0.47-4.18-1.11-8.34-1.35-12.54c-0.17-3.03-0.88-5.48-3.43-7.44
				c-3.54-2.73-6.84-5.78-10.24-8.69c-0.56-0.54-1.16-1.05-1.41-1.83c-0.7-3.7-0.88-7.54-0.22-11.13c0.67-3.65-0.07-6.3-2.66-8.67
				c2.18-2.6,3.84,0.39,5.76,0.54c1.24,0.81,1.13,2.13,1.2,3.36c0.09,1.49,0.22,3.02,0.01,4.48c-1.26,8.67,3.1,14.47,10.05,19.53
				c0.72-5.5,2.76-10.71-1.29-15.65c-1.66-2.02-3.2-4.15-4.58-6.38c-0.7-1.14-1.68-2.24-1.04-3.77c2.3,1.07,3.39,0.82,3.38-2.2
				c0-2.25,0.26-4.84,2.82-6.13c1.18,1.03,0.88,2.37,0.36,3.42c-2.11,4.29-0.54,7.92,1.74,11.5c0.66,1.04,1.32,2.1,1.86,3.5
				c1.87-4.88,2.61-9.69,2.22-14.69c1.36,0.68,2.68,1.66,4.32,0.77c-1.46,6.94-4.01,13.62-4.7,20.77
				c-0.75,7.74-0.37,15.47-0.41,23.21c0,0.61,0.03,1.33,0.33,1.81c2.15,3.33,1.13,6.89,1.31,10.45c0.14,2.72-0.13,4.99-1.02,7.38
				c0.02-3.8,0.13-7.6,0.01-11.4c-0.04-1.37,0.99-3.74-1.66-3.7C269.03,138.55,270.85,140.9,270.17,142.01z"/>
			<path class="st179" d="M255.94,158.32c1.18,1.56,1.06,2.73-0.63,4.02c-7.17,5.43-4.61,5.5-9.82-0.81
				c-4.04-4.9-7.19-10.41-9.06-16.57c0.18-2.54-1.47-4.67-1.59-7.16c-0.07-1.44-0.02-2.99,1.22-3.68c1.47-0.83,2.37,0.68,3.43,1.52
				c2.45,1.96,3.28,5.3,6.03,6.97C249.23,147.68,253.12,152.64,255.94,158.32z"/>
			<path class="st180" d="M306.87,90.75c-0.02,4.71-0.18,9.42-0.02,14.12c0.11,3.44-0.7,6.26-3.3,8.7
				c-2.88,2.71-5.46,5.74-8.72,9.22c-0.96-7.82-3.81-14.84,2.35-21.26c2.54-2.65,4.24-6.11,6.33-9.2
				C304.82,92.21,304.39,88.39,306.87,90.75z"/>
			<path class="st177" d="M302.51,158.25c-1.3-1.96-5.22-1.54-5.04-4.1c0.15-2.05,2.31-3.97,3.62-5.92
				c4.31-6.42,9.41-12.11,15.55-16.84c1.18-0.91,2.28-1.95,3.96-1.67c2.71,1.53,2.69,3.61,1.09,5.9c-4.82,6.9-9.21,14.1-14.21,20.88
				C306.17,158.28,304.75,159.32,302.51,158.25z"/>
			<path class="st181" d="M328.77,135.74c-1.24,9.08-5.44,16.88-10.65,24.2c-3.83,5.37-3.94,5.29-10.31,1.28
				c-1.28-1.5-0.39-2.82,0.42-4.06c4.63-7.08,9.27-14.15,14.08-21.11C324.47,132.93,326.04,132.95,328.77,135.74z"/>
			<path class="st182" d="M260.98,93.83c2.13,3.07,4.14,6.21,6.41,9.18c2.6,3.4,3.69,7.04,2.48,11.2c-0.73,2.52,0.01,5.26-1.37,7.92
				c-6.8-6.06-13.94-11.67-11.82-22.42c0.47-2.39-0.01-4.97-0.05-7.46c0.34-0.86-0.31-1.94,0.62-2.77
				C259.11,90.42,259.38,92.71,260.98,93.83z"/>
			<path class="st180" d="M256.83,170.75c3.29-3.23,7.14-4.73,10.83-6.45c1.64-0.77,2.62,0.22,2.99,1.78
				c1.62,6.82,1.92,13.8,2.3,20.76c0.1,1.79-1.08,2.66-2.74,2.98c-1.78,0.34-2.54-0.8-2.9-2.21c-0.4-1.56-0.69-3.17-0.79-4.78
				c-0.32-4.71-2.03-8.41-6.73-10.24C258.89,172.24,258.12,171.56,256.83,170.75z"/>
			<path class="st183" d="M290.01,184.39c0.7-5.19,1.51-11.23,2.31-17.27c0.39-2.91,1.81-3.6,4.37-2.15
				c2.38,1.35,4.86,2.55,7.21,3.94c1.89,1.12,2.2,2.52-0.14,3.42c-5.16,1.97-6.96,6.02-7.24,11.12c-0.05,0.87-0.24,1.73-0.42,2.58
				c-0.38,1.85-0.02,4.37-3.13,3.99C290.14,189.66,289.94,187.5,290.01,184.39z"/>
			<path class="st184" d="M250.86,91.71c2.53,0.56,4.83,1.79,4.21,4.67c-1.09,5.1,0.06,10.22-0.68,15.29
				c-2.61-0.53-4.69-2-6.66-3.69c-6.36-2.7-4.85-8.86-5.88-13.81c-0.41-1.98,1.29-1.68,2.47-0.86c1.72,1.2,3.38,2.47,5.24,3.84
				C250.03,95.18,250.45,93.44,250.86,91.71z"/>
			<path class="st185" d="M273.35,89.23c2.26,3.15,1.1,6.44,0.37,9.69c-0.52,2.29-1.17,4.55-1.94,7.51
				c-2.8-4.09-5.24-7.81-6.54-11.93c-0.94-2.98,1.76-5.86,1.94-8.99c0.41-1.03,0.82-2.05,1.27-3.18
				C270.75,84.18,271.3,87.25,273.35,89.23z"/>
			<path class="st186" d="M297.4,89.26c2.89,6.99-2.95,11.1-5.37,16.44c-1.44-5.44-4.71-10.54-2.08-16.39
				c1.57-2.17,3.14-4.33,4.82-6.65C296.37,84.71,296.3,87.22,297.4,89.26z"/>
			<path class="st187" d="M245.43,143.26c-3.93-0.61-3.8-5.17-6.68-6.87c-0.77-0.45-1.12-1.95-2.21-1.68
				c-1.27,0.32-0.75,1.68-0.76,2.59c-0.01,1.45-0.45,3.1,1.01,4.16c1.98,1.43-0.72,2.28-0.37,3.49c-1.11-3.29-3.77-6.3-1.91-10.14
				c0.44-0.9-0.21-1.02-0.79-1.25c-1.78-0.71-2.47-2.4-3.32-3.88c-2.14-3.76-0.93-6.57,3.21-8.01c1.25-0.43,1.9,0.11,2.5,0.96
				c1.16,1.62,2.29,3.26,3.43,4.89c0.34,1.64,1.17,3.32-0.68,4.67c-0.86,0.62,0.23,0.32,0.33,0.48
				C241.51,136.07,244.23,139.21,245.43,143.26z"/>
			<path class="st188" d="M328.77,135.74c-2.8-2.11-4.43-1.18-6.21,1.68c-4.18,6.74-8.8,13.22-13.16,19.85
				c-0.77,1.17-2.17,2.19-1.59,3.95c-1.37-1.7-3.64-1.8-5.31-2.97c1.69,0.41,2.8-0.3,3.73-1.69c4.91-7.3,9.79-14.63,14.87-21.82
				c1.48-2.09,0.38-3.43-0.51-5.03c2.26,0.3,1.66-2.99,3.71-2.96c0.44,0.65,0.28,1.41,0.41,2.12c0.61,3.31,3.07,4.25,5.88,2.28
				c0.81-0.57,1.29-1.89,2.67-1.31C333.48,133.12,331.8,134.95,328.77,135.74z"/>
			<path class="st189" d="M321.21,94.44c-0.24,0.83-0.67,1.65-0.68,2.48c-0.05,6.91-3.71,10.94-10.42,12.85
				c-0.44-4.52-1.32-8.99,4.01-11.69c1.62-0.82,2.9-2.31,4.34-3.49C319.38,94.71,320.2,92.76,321.21,94.44z"/>
			<path class="st190" d="M333.27,129.85c-1.47,1.2-1.95,3.51-4.26,3.78c-3.62,0.42-5.98-3.02-4.7-6.87
				c0.45-0.58,0.86-1.19,1.34-1.73c1.34-1.48,1.67-4.66,5.08-2.34C334.92,125.54,335.21,125.77,333.27,129.85z"/>
			<path class="st191" d="M286.86,202.74c1.89-1.78,3.67-3.47,5.49-5.14c0.11-0.1,0.44,0.05,0.67,0.08c0.51,0.66,0.03,1.2-0.26,1.69
				c-2.76,4.74-2.77,4.73,1.82,8.33c0.56,0.44,1.1,0.91,1.75,1.44c-2.67,0.92-2.67,0.91-5.27-1.57c-0.85-0.81-1.29-2.35-2.88-1.89
				c-1.55,0.45-1.4,1.85-1.47,3.08c-0.06,0.91-0.17,1.79-1.37,1.81c-1.41,0.03-1.56-0.97-1.56-2.02c0-2.86,0.02-5.72,0.04-8.57
				c0.01-0.76,0.05-1.65,0.98-1.75c1-0.11,1.09,0.77,1.17,1.53C286.04,200.73,285.77,201.79,286.86,202.74z"/>
			<path class="st192" d="M264.01,206.77c0.89-3.68-1.19-4.05-3.37-4.7c-2.91-0.88-2.1,1.59-2.82,2.72
				c-0.45,0.71-0.11,2.3-1.76,1.78c-1.49-0.46-1.29-1.46-0.87-2.66c0.86-2.46,2.12-4.78,2.49-7.41c0.11-0.75,0.73-1.41,1.61-1.15
				c0.81,0.24,1.19,0.95,0.82,1.78c-1.25,2.79,0.78,3,2.62,3.57c2.14,0.67,3.06-0.01,3.11-2.2c0.02-0.85,0.61-1.48,1.44-1.35
				c1.06,0.17,0.73,1.2,0.63,1.82c-0.4,2.56-0.92,5.1-1.41,7.65c-0.18,0.95-0.14,2.38-1.45,2.18
				C263.57,208.59,263.87,207.23,264.01,206.77z"/>
			<path class="st193" d="M303.07,195.79c2.04,1.13,3.27,3.88,5.38,5.68c0.8,0.68,1.24,1.8,1.77,2.77c0.21,0.39,0.41,1.04,0.22,1.33
				c-0.44,0.69-1.01,0.21-1.58-0.04c-3.2-1.38-5.88-0.99-7.71,2.33c-0.34,0.61-0.95,1.33-1.79,0.92c-0.8-0.39-0.67-1.31-0.52-1.99
				c0.7-3.13,1.52-6.23,1.49-9.48C300.3,195.95,301.32,195.78,303.07,195.79z"/>
			<path class="st191" d="M279.83,204.01c-1.59,1.14-3.1,0.68-4.46,0.65c-1.92-0.04-2.41,1.29-2.45,2.64
				c-0.05,1.82,1.57,1.01,2.53,1.21c0.24,0.05,0.51-0.04,0.74,0.01c1.46,0.31,4.18-0.83,4.1,1.04c-0.1,2.21-2.88,1.19-4.36,1.03
				c-5.96-0.61-5.95-0.72-4.97-7.06c0.87-5.58,2-6.37,7.84-5.52c0.75,0.11,1.63,0.1,1.67,1.06c0.04,0.99-0.83,1.12-1.59,1.12
				c-0.99-0.01-2.01,0.02-2.95-0.22c-1.32-0.33-2.51-0.75-2.65,1.25c-0.12,1.75,1.02,1.99,2.39,2.09
				C276.94,203.41,278.32,202.95,279.83,204.01z"/>
			<path class="st194" d="M245.43,143.26c-0.73-1.15-1.42-2.33-2.2-3.46c-2.55-3.7-6.15-7.07-3.68-12.27
				c0.53,0.79,1.06,1.57,1.59,2.36c-1.33,2.21-0.18,4.01,0.99,5.77c4.85,7.3,9.71,14.59,14.56,21.89c-0.25,0.26-0.51,0.52-0.76,0.77
				C252.43,153.3,248.93,148.28,245.43,143.26z"/>
			<path class="st195" d="M313.67,94.49c-0.07,0.36-0.13,0.73-0.2,1.09c-0.39,2.05-1.81,3.19-3.62,3.87
				c-0.94,0.35-1.3-0.37-1.39-1.2c-0.24-2.11-0.59-4.27,1.79-5.53c0.65-0.35,1.3-0.7,1.95-1.04
				C312.69,92.61,313.18,93.55,313.67,94.49z"/>
			<path class="st196" d="M348.12,110.37c0.13,1.57-1,1.32-1.97,1.41c-2.75,0.25-5.68-0.82-8.2,1.31c-0.67,0.57-1.69,0.04-2.23-0.77
				c-0.54-0.8-0.49-1.66,0.03-2.45c0.55-0.84,1.57-1.19,2.27-0.7c3.2,2.2,6.73,0.91,10.11,1.2
				C348.13,110.39,348.12,110.37,348.12,110.37z"/>
			<path class="st197" d="M354.96,129.03c-1.62,1.44-3.57,0.49-5.35,0.72c-1.9,0.25-3.94-0.53-5.65,1.16
				c-0.77,0.76-1.89,0.33-2.64-0.53c-0.55-0.64-0.64-1.33-0.16-2.04c0.53-0.79,1.5-1.47,2.2-0.97c3.62,2.56,7.82,0.62,11.61,1.68
				C354.97,129.04,354.96,129.03,354.96,129.03z"/>
			<path class="st198" d="M274.86,70.57c4.68,0,9.36,0,14.04,0C284.21,71.7,279.53,71.68,274.86,70.57z"/>
			<path class="st199" d="M247.73,107.98c2.22,1.23,4.44,2.46,6.66,3.69c0.25,0.56,0.5,1.11,0.76,1.67
				c-2.47-1.44-4.93-2.88-7.4-4.32C247.74,108.67,247.74,108.32,247.73,107.98z"/>
			<path class="st200" d="M278.35,146.48c2.99-1.35,5.37-1.48,7.91,0.11C283.7,147.97,281.32,148.3,278.35,146.48z"/>
			<path class="st1" d="M291.32,137.25c2.99,1.69,2.05,3.16-0.25,4.56C288.52,140.15,289.75,138.69,291.32,137.25z"/>
			<path class="st201" d="M278.4,141.99c2.67-1.48,4.92-1.47,7.56-0.06C283.41,143.53,281.19,143.5,278.4,141.99z"/>
			<path class="st202" d="M302.63,198.95c1.77,1.1,2.79,2.23,2.41,3.78c-0.2,0.83-1.68,0.8-2.28,0.35
				C301.13,201.86,302.93,200.62,302.63,198.95z"/>
		</g>
	</g>
</g>
</svg>
